<svg width="326" height="94" viewBox="0 0 326 94" fill="none" xmlns="http://www.w3.org/2000/svg"><path d="M210.309 89.355a8.184 8.184 0 01-2.615-.416c-.829-.277-1.475-.627-1.94-1.05l.501-.876c.465.394 1.061.722 1.787.985a6.866 6.866 0 002.311.394c1.147 0 1.99-.19 2.528-.569.552-.38.828-.905.828-1.576 0-.481-.153-.86-.458-1.138a2.656 2.656 0 00-1.09-.613 18.524 18.524 0 00-1.808-.416c-.901-.16-1.628-.335-2.18-.525a3.421 3.421 0 01-1.417-.92c-.392-.423-.588-1.006-.588-1.75 0-.905.371-1.65 1.112-2.233.755-.599 1.823-.898 3.203-.898.727 0 1.446.102 2.158.307.712.204 1.293.474 1.743.81l-.501.875a5.195 5.195 0 00-1.591-.766 6.46 6.46 0 00-1.831-.263c-1.06 0-1.859.197-2.397.591-.537.394-.806.912-.806 1.554 0 .511.152.913.457 1.204.306.278.676.49 1.112.635.45.132 1.075.277 1.874.438.887.16 1.598.336 2.136.525a3.17 3.17 0 011.395.876c.378.408.567.97.567 1.685 0 .949-.393 1.708-1.177 2.277-.785.569-1.889.853-3.313.853zm14.919-.81a2.844 2.844 0 01-1.046.613 4.161 4.161 0 01-1.286.197c-.988 0-1.751-.27-2.288-.81-.538-.554-.807-1.32-.807-2.298v-7.464h-2.092v-.941h2.092v-2.495h1.09v2.495h3.618v.941h-3.618v7.355c0 .744.174 1.313.523 1.707.363.38.894.569 1.591.569.712 0 1.3-.212 1.765-.635l.458.766zm5.829-8.208c.348-.832.893-1.466 1.634-1.904.741-.453 1.642-.679 2.703-.679v1.073l-.262-.022c-1.264 0-2.252.401-2.964 1.204-.712.788-1.068 1.89-1.068 3.305v5.954h-1.089V77.842h1.046v2.495zm12.919-2.583c1.409 0 2.491.365 3.247 1.095.755.715 1.133 1.773 1.133 3.174v7.245h-1.046v-2.036a3.855 3.855 0 01-1.591 1.576c-.697.365-1.533.547-2.506.547-1.264 0-2.267-.299-3.008-.897-.726-.599-1.09-1.386-1.09-2.364 0-.949.335-1.715 1.003-2.298.683-.599 1.765-.898 3.247-.898h3.902v-.92c0-1.064-.291-1.874-.872-2.429-.567-.554-1.402-.832-2.507-.832a6.13 6.13 0 00-2.179.394 5.467 5.467 0 00-1.744 1.051l-.544-.788c.566-.51 1.249-.905 2.048-1.182a7.25 7.25 0 012.507-.438zm-.611 10.704c.945 0 1.744-.22 2.398-.657.668-.438 1.169-1.072 1.504-1.904v-2.145h-3.88c-1.119 0-1.932.204-2.441.613-.494.408-.741.97-.741 1.685 0 .744.276 1.335.828 1.773.552.423 1.33.635 2.332.635zm16.869.087a2.835 2.835 0 01-1.046.613 4.157 4.157 0 01-1.286.197c-.988 0-1.75-.27-2.288-.81-.538-.554-.806-1.32-.806-2.298v-7.464h-2.093v-.941h2.093v-2.495h1.089v2.495h3.618v.941h-3.618v7.355c0 .744.175 1.313.523 1.707.364.38.894.569 1.591.569.712 0 1.301-.212 1.766-.635l.457.766zm13.99-4.728h-9.786c.029.89.254 1.686.676 2.386a4.373 4.373 0 001.7 1.598c.726.38 1.54.57 2.441.57.741 0 1.424-.132 2.048-.395a4.083 4.083 0 001.591-1.204l.632.723a4.836 4.836 0 01-1.874 1.379 6.019 6.019 0 01-2.419.481c-1.133 0-2.143-.248-3.03-.744a5.465 5.465 0 01-2.092-2.058c-.494-.875-.741-1.875-.741-2.998 0-1.11.233-2.102.698-2.977a5.293 5.293 0 011.961-2.08c.828-.496 1.758-.744 2.79-.744 1.031 0 1.954.248 2.768.745a5.028 5.028 0 011.939 2.035c.48.876.72 1.868.72 2.977l-.022.306zm-5.405-5.1c-.799 0-1.519.183-2.158.548a4.05 4.05 0 00-1.547 1.51c-.378.642-.596 1.372-.654 2.189h8.718c-.044-.817-.262-1.547-.654-2.19a4.273 4.273 0 00-1.548-1.51c-.639-.364-1.358-.547-2.157-.547zm20.785-.875v10.2c0 1.897-.458 3.298-1.373 4.203-.916.904-2.296 1.357-4.141 1.357a9.012 9.012 0 01-2.964-.482c-.93-.321-1.679-.766-2.245-1.335l.588-.832c.567.525 1.25.934 2.049 1.226a7.375 7.375 0 002.55.438c1.511 0 2.63-.365 3.356-1.095.727-.715 1.09-1.831 1.09-3.349v-1.926a4.844 4.844 0 01-1.94 1.926c-.828.453-1.758.679-2.79.679-1.06 0-2.026-.234-2.898-.7a5.328 5.328 0 01-2.027-1.993c-.494-.846-.741-1.802-.741-2.867s.247-2.02.741-2.867a5.17 5.17 0 012.027-1.97c.872-.467 1.838-.7 2.898-.7 1.047 0 1.991.233 2.834.7a4.77 4.77 0 011.939 1.97v-2.583h1.047zm-5.732 10.025c.886 0 1.685-.19 2.397-.57a4.218 4.218 0 001.656-1.619c.407-.7.611-1.496.611-2.386 0-.89-.204-1.678-.611-2.364a4.07 4.07 0 00-1.656-1.598c-.712-.394-1.511-.59-2.397-.59-.887 0-1.686.196-2.398.59a4.263 4.263 0 00-1.656 1.598c-.392.686-.589 1.474-.589 2.364 0 .89.197 1.686.589 2.386a4.425 4.425 0 001.656 1.62c.712.38 1.511.569 2.398.569zm12.088-10.025h1.089v11.426h-1.089V77.842zm.545-2.78a.9.9 0 01-.632-.24.865.865 0 01-.262-.636c0-.248.087-.46.262-.634a.859.859 0 01.632-.263.86.86 0 01.632.263c.174.16.261.364.261.613 0 .248-.087.46-.261.634a.86.86 0 01-.632.263zm16.492 8.755h-9.785c.029.89.254 1.686.675 2.386a4.38 4.38 0 001.7 1.598c.727.38 1.54.57 2.441.57a5.23 5.23 0 002.049-.395 4.098 4.098 0 001.591-1.204l.632.723a4.843 4.843 0 01-1.874 1.379 6.023 6.023 0 01-2.42.481c-1.133 0-2.143-.248-3.029-.744a5.459 5.459 0 01-2.092-2.058c-.494-.875-.741-1.875-.741-2.998 0-1.11.232-2.102.697-2.977.48-.89 1.133-1.583 1.962-2.08.828-.496 1.758-.744 2.789-.744 1.032 0 1.954.248 2.768.745a5.03 5.03 0 011.94 2.035c.479.876.719 1.868.719 2.977l-.022.306zm-5.405-5.1c-.799 0-1.518.183-2.157.548-.64.35-1.155.853-1.548 1.51-.378.642-.595 1.372-.654 2.189h8.718c-.043-.817-.261-1.547-.654-2.19a4.27 4.27 0 00-1.547-1.51c-.639-.364-1.359-.547-2.158-.547zm13.419 10.638a8.185 8.185 0 01-2.616-.416c-.828-.277-1.474-.627-1.939-1.05l.501-.876c.465.394 1.061.722 1.787.985a6.865 6.865 0 002.31.394c1.148 0 1.991-.19 2.528-.569.552-.38.829-.905.829-1.576 0-.481-.153-.86-.458-1.138a2.663 2.663 0 00-1.09-.613 18.627 18.627 0 00-1.809-.416c-.901-.16-1.627-.335-2.179-.525a3.415 3.415 0 01-1.417-.92c-.392-.423-.588-1.006-.588-1.75 0-.905.37-1.65 1.111-2.233.756-.599 1.824-.898 3.204-.898.726 0 1.446.102 2.158.307.712.204 1.293.474 1.743.81l-.501.875a5.195 5.195 0 00-1.591-.766 6.46 6.46 0 00-1.831-.263c-1.06 0-1.86.197-2.397.591-.538.394-.807.912-.807 1.554 0 .511.153.913.458 1.204.305.278.676.49 1.112.635.45.132 1.075.277 1.874.438.886.16 1.598.336 2.136.525a3.17 3.17 0 011.395.876c.377.408.566.97.566 1.685 0 .949-.392 1.708-1.177 2.277-.784.569-1.888.853-3.312.853zM124.137 19.191c6.947 0 12.248 1.603 15.901 4.807 3.654 3.152 5.481 8.01 5.481 14.574v23.334h-13.663v-5.427c-2.11 4.083-6.226 6.125-12.35 6.125-3.242 0-6.046-.569-8.413-1.706-2.368-1.137-4.169-2.661-5.404-4.574-1.183-1.963-1.775-4.186-1.775-6.666 0-3.98 1.518-7.055 4.554-9.226 3.036-2.222 7.719-3.333 14.048-3.333h8.337c-.257-4.445-3.216-6.667-8.877-6.667-2.007 0-4.039.336-6.098 1.008-2.058.62-3.808 1.499-5.249 2.636l-4.94-10c2.316-1.551 5.121-2.74 8.414-3.567a39.357 39.357 0 0110.034-1.318zm-.54 34.11c1.698 0 3.191-.413 4.477-1.24 1.286-.827 2.213-2.042 2.779-3.644v-3.643h-6.33c-4.271 0-6.406 1.42-6.406 4.263 0 1.292.489 2.326 1.466 3.101.978.775 2.316 1.163 4.014 1.163zm31.179-48.916h14.666v57.521h-14.666V4.385zm50.518 14.806c3.808 0 7.255.905 10.343 2.714 3.139 1.757 5.609 4.29 7.41 7.597 1.853 3.256 2.779 7.054 2.779 11.396 0 4.34-.926 8.165-2.779 11.473-1.801 3.256-4.271 5.788-7.41 7.597-3.088 1.757-6.535 2.636-10.343 2.636-4.889 0-8.774-1.473-11.656-4.42v18.761h-14.665V19.89h13.971v4.186c2.727-3.256 6.844-4.884 12.35-4.884zm-3.088 31.707c2.573 0 4.683-.879 6.33-2.636 1.646-1.809 2.47-4.264 2.47-7.364 0-3.101-.824-5.53-2.47-7.288-1.647-1.808-3.757-2.713-6.33-2.713s-4.683.905-6.329 2.714c-1.647 1.757-2.47 4.186-2.47 7.287 0 3.1.823 5.555 2.47 7.364 1.646 1.757 3.756 2.636 6.329 2.636zm57.684-31.707c5.197 0 9.366 1.55 12.505 4.652 3.19 3.1 4.785 7.778 4.785 14.031v24.032h-14.666V40.277c0-5.736-2.289-8.605-6.869-8.605-2.522 0-4.554.827-6.098 2.481-1.492 1.654-2.239 4.135-2.239 7.442v20.311h-14.665V4.385h14.665v19.38c1.596-1.498 3.474-2.636 5.635-3.41 2.161-.776 4.477-1.164 6.947-1.164zm44.328 0c6.947 0 12.248 1.603 15.901 4.807 3.654 3.152 5.481 8.01 5.481 14.574v23.334h-13.663v-5.427c-2.109 4.083-6.226 6.125-12.35 6.125-3.242 0-6.046-.569-8.413-1.706s-4.169-2.661-5.404-4.574c-1.183-1.963-1.775-4.186-1.775-6.666 0-3.98 1.518-7.055 4.554-9.226 3.036-2.222 7.719-3.333 14.049-3.333h8.336c-.257-4.445-3.216-6.667-8.877-6.667-2.007 0-4.039.336-6.098 1.008-2.058.62-3.808 1.499-5.248 2.636l-4.941-10c2.316-1.551 5.121-2.74 8.414-3.567a39.357 39.357 0 0110.034-1.318zm-.54 34.11c1.698 0 3.191-.413 4.477-1.24 1.287-.827 2.213-2.042 2.779-3.644v-3.643h-6.33c-4.271 0-6.406 1.42-6.406 4.263 0 1.292.489 2.326 1.466 3.101.978.775 2.316 1.163 4.014 1.163z" fill="#363442"/><path fill-rule="evenodd" clip-rule="evenodd" d="M98.875 12.792L86.58 1.112l-20.044 20.26-11.052-11.088c-12.51-12.644-32.792-12.644-45.301 0-12.51 12.644-12.51 33.143 0 45.787 12.51 12.644 32.791 12.644 45.3 0l11.053-10.957 20.043 20.258 12.296-11.01-20.572-21.12 20.572-20.45zM43.74 22.155l10.906 11.023L43.739 44.2a15.307 15.307 0 01-21.811 0c-6.024-6.088-6.024-15.959 0-22.046a15.307 15.307 0 0121.81 0z" fill="#fff"/></svg>