<svg width="151" height="36" viewBox="0 0 151 36" fill="none" xmlns="http://www.w3.org/2000/svg"><path fill-rule="evenodd" clip-rule="evenodd" d="M138.652 6.456v-4.71L144.844 0v6.456h6.154v5.699h-6.152v10.8c0 .957.193 1.419.359 1.615.205.179.587.35 1.308.375.899 0 2.017-.03 3.355-.086L151 24.81v5.358l-.942.116c-3.58.444-6.477.224-8.442-.93l-.007-.003-.006-.004c-2.075-1.256-2.948-3.521-2.948-6.394v-10.8h-4.583V6.457h4.58zM72.047 36v-1.018c0-2.873 0-5.748.002-8.622v-.109l.003-8.719c0-7.014 6.063-12.698 13.54-12.698 7.476 0 13.54 5.684 13.54 12.698 0 7.015-6.064 12.699-13.54 12.699a14.13 14.13 0 01-7.34-2.026V36h-6.205zm13.545-25.35c-4.057 0-7.343 3.083-7.343 6.882 0 3.8 3.286 6.884 7.343 6.884 4.056 0 7.342-3.084 7.342-6.884 0-3.8-3.285-6.883-7.342-6.883zm-19.369 3.722c-.035-2.482-1.102-4.86-2.983-6.62-1.91-1.788-4.498-2.79-7.195-2.79-2.643 0-5.182.963-7.08 2.684-1.898-1.721-4.436-2.685-7.08-2.685-2.697 0-5.286 1.004-7.196 2.793-1.874 1.755-2.964 4.13-3 6.618V30.15h6.222V14.4a3.61 3.61 0 011.16-2.532 4.12 4.12 0 012.815-1.092c1.055 0 2.068.393 2.815 1.093.756.707 1.193 1.658 1.193 2.63v15.65h6.222v-15.75c.027-.975.413-1.873 1.115-2.531a4.12 4.12 0 012.814-1.092c1.055 0 2.069.393 2.816 1.093a3.603 3.603 0 011.163 2.63v15.65h6.2V14.372zM13.235 5.724c-3.842 0-7.057 1.175-9.54 3.572C1.22 11.678 0 14.68 0 18.191c0 3.551 1.237 6.56 3.744 8.943l.005.005.005.004c2.545 2.357 5.785 3.53 9.76 3.514 4.866 0 8.612-1.737 11.111-5.387l.62-.905-5.336-2.842-.548.835c-1.16 1.766-3.002 2.693-5.756 2.693-1.994 0-3.608-.485-4.908-1.403A5.872 5.872 0 016.63 20.95h18.947l.139-.866c.1-.63.151-1.244.151-1.85 0-3.404-1.172-6.35-3.529-8.782v-.001l-.002-.002c-2.388-2.448-5.395-3.726-9.1-3.726zm-4.68 7.1l.005-.003.005-.004c1.196-.976 2.724-1.491 4.67-1.491 1.61 0 2.99.461 4.18 1.38.885.683 1.544 1.63 1.94 2.897H6.586a6.02 6.02 0 011.968-2.778zm108.789 17.324a14.05 14.05 0 007.286-2.008v1.898h6.192l-.007-12.718v-.006c-.101-6.909-6.093-12.48-13.471-12.48-7.441 0-13.472 5.667-13.472 12.657s6.031 12.657 13.472 12.657zm-7.288-12.657c0-3.782 3.263-6.847 7.288-6.847 3.971 0 7.199 2.983 7.286 6.694v.333c-.101 3.698-3.325 6.667-7.286 6.667-4.025 0-7.288-3.065-7.288-6.847z" fill="#fff"/></svg>