<svg width="223" height="112" viewBox="0 0 223 112" fill="none" xmlns="http://www.w3.org/2000/svg"><rect x="3.608" y="3.755" width="215.647" height="105.059" rx="52.529" stroke="#fff" stroke-width="5.529"/><path d="M134.474 68.402h4.48l-9.847-27.272h-4.574l-9.846 27.272h4.403l2.495-7.37h10.395l2.494 7.37zm-7.748-22.736h.113l4.063 11.964h-8.24l4.064-11.964zm14.836-1.852v4.706h-2.892v3.232h2.892v11.415c0 3.837 1.568 5.368 5.594 5.368.907 0 1.814-.076 2.268-.19v-3.231c-.265.056-.926.094-1.342.094-1.663 0-2.419-.775-2.419-2.494V51.752h3.78V48.52h-3.78v-4.706h-4.101zm12.435 0v4.706h-2.891v3.232h2.891v11.415c0 3.837 1.569 5.368 5.595 5.368.907 0 1.814-.076 2.268-.19v-3.231c-.265.056-.927.094-1.342.094-1.663 0-2.419-.775-2.419-2.494V51.752h3.779V48.52h-3.779v-4.706h-4.102zm13.23 31.997c4.12 0 6.086-1.55 7.787-6.37l7.446-20.92h-4.309l-5.027 16.177h-.076l-5.027-16.178h-4.423l7.182 19.901c0 .02-.359 1.19-.359 1.229-.624 2.04-1.644 2.835-3.534 2.835-.34 0-1.021 0-1.323-.076v3.307c.302.057 1.323.095 1.663.095z" fill="#fff"/><rect x="11.902" y="12.049" width="88.471" height="88.471" rx="44.235" fill="#fff"/><path d="M48.967 57.063v-2.779H37.74v3.421h7.05v.473c-.057 4.139-3.119 6.974-7.541 6.974-5.198 0-8.43-4.026-8.43-10.546 0-6.407 3.138-10.225 8.354-10.225 3.553 0 6.218 1.947 7.239 5.33h4.347c-.945-5.443-5.538-9.034-11.605-9.034-7.767 0-12.662 5.367-12.662 13.967 0 8.75 4.914 14.212 12.72 14.212 7.389 0 11.755-4.404 11.755-11.793zM60.93 51.45c2.854 0 4.781 2.135 4.876 5.178h-9.941c.208-3.005 2.211-5.178 5.065-5.178zm4.857 11.112c-.548 1.74-2.268 2.91-4.593 2.91-3.27 0-5.348-2.286-5.348-5.744v-.246h14.042v-1.399c0-6.029-3.44-9.922-8.958-9.922-5.613 0-9.204 4.158-9.204 10.395 0 6.274 3.534 10.224 9.374 10.224 4.555 0 7.994-2.589 8.561-6.218h-3.874zm8.467-18.748v4.706h-2.892v3.232h2.892v11.415c0 3.837 1.569 5.368 5.594 5.368.907 0 1.814-.076 2.268-.19v-3.231c-.265.056-.926.094-1.342.094-1.663 0-2.419-.775-2.419-2.494V51.752h3.78V48.52h-3.78v-4.706h-4.101z" fill="#304FFE"/></svg>