<svg width="452" height="260" viewBox="0 0 452 260" fill="none" xmlns="http://www.w3.org/2000/svg"><path d="M179.281 108.609c.545 0 1.016.09 1.414.272.405.182.715.439.932.773.217.334.325.73.325 1.187 0 .451-.108.846-.325 1.186a2.098 2.098 0 01-.932.773c-.398.176-.869.264-1.414.264h-1.239v1.696h-1.424v-6.151h2.663zm-.079 3.295c.427 0 .752-.091.975-.273.223-.187.334-.451.334-.79 0-.346-.111-.61-.334-.791-.223-.188-.548-.281-.975-.281h-1.16v2.135h1.16zm7.861 2.856l-1.186-1.714h-1.309v1.714h-1.424v-6.151h2.663c.545 0 1.016.09 1.414.272.405.182.715.439.932.773.217.334.325.73.325 1.187 0 .457-.111.852-.334 1.186-.217.328-.527.58-.931.756l1.379 1.977h-1.529zm-.026-3.919c0-.346-.111-.61-.334-.791-.223-.188-.548-.281-.975-.281h-1.16v2.144h1.16c.427 0 .752-.094.975-.282.223-.187.334-.451.334-.79zm2.447.896h2.486v1.098h-2.486v-1.098zm6.102 3.093c-.503 0-.957-.102-1.362-.307a2.413 2.413 0 01-.94-.87 2.394 2.394 0 01-.334-1.257c0-.469.112-.888.334-1.257.229-.369.542-.656.94-.861a2.903 2.903 0 011.362-.316c.498 0 .932.105 1.301.316.375.205.647.501.817.888l-1.063.571c-.246-.434-.601-.65-1.063-.65-.358 0-.654.117-.888.351-.234.234-.351.554-.351.958 0 .404.117.723.351.958.234.234.53.351.888.351.468 0 .823-.216 1.063-.65l1.063.58c-.17.375-.442.668-.817.879-.369.211-.803.316-1.301.316zm7.828-4.798v4.728h-1.371v-3.603h-1.968v3.603h-1.362v-4.728h4.701zm6.086 2.382c0 .017-.009.14-.026.369h-3.577c.065.293.217.524.457.694.24.17.539.255.896.255.247 0 .463-.036.651-.106.193-.076.372-.193.536-.351l.729.791c-.445.509-1.095.764-1.951.764-.533 0-1.004-.102-1.414-.307a2.314 2.314 0 01-.949-.87 2.384 2.384 0 01-.334-1.257c0-.463.108-.879.325-1.248a2.3 2.3 0 01.905-.87 2.65 2.65 0 011.292-.316c.462 0 .881.099 1.256.299.375.199.668.486.879.861.217.369.325.799.325 1.292zm-2.452-1.415c-.31 0-.571.088-.782.263a1.122 1.122 0 00-.386.721h2.328a1.115 1.115 0 00-.386-.712 1.148 1.148 0 00-.774-.272zm9.004 2.636v2.162h-1.274v-1.037h-4.051v-4.728h1.362v3.603h1.906v-3.603h1.371v3.603h.686zm1.029-3.603h1.371v4.728h-1.371v-4.728zm.685-.659c-.252 0-.457-.073-.615-.22a.712.712 0 01-.237-.544c0-.217.079-.399.237-.545.158-.147.363-.22.615-.22s.457.07.615.211a.677.677 0 01.238.527.76.76 0 01-.238.571c-.158.147-.363.22-.615.22zm4.013.589c.733 0 1.295.176 1.687.527.393.346.589.87.589 1.573v2.698h-1.283v-.589c-.258.439-.738.659-1.441.659a2.27 2.27 0 01-.949-.184 1.405 1.405 0 01-.606-.51 1.324 1.324 0 01-.211-.738c0-.44.164-.785.492-1.037.334-.252.846-.378 1.538-.378h1.089c0-.299-.09-.527-.272-.685-.182-.164-.454-.247-.817-.247a2.35 2.35 0 00-.747.124 1.9 1.9 0 00-.615.316l-.492-.958c.257-.182.565-.322.922-.422a4.223 4.223 0 011.116-.149zm-.105 3.945c.234 0 .442-.052.624-.158a.909.909 0 00.386-.483v-.483h-.94c-.562 0-.844.184-.844.553 0 .176.068.317.203.422.14.1.331.149.571.149zm8.282-3.875v4.728h-1.371v-3.603h-1.494l-.044.835c-.023.621-.082 1.136-.175 1.546-.094.41-.246.733-.457.967-.211.234-.504.351-.879.351-.199 0-.436-.035-.712-.105l.07-1.125c.094.012.162.018.203.018.205 0 .357-.073.457-.22.105-.152.175-.343.21-.571a9.22 9.22 0 00.08-.923l.07-1.898h4.042zm1.485 0h1.371v4.728h-1.371v-4.728zm.686-.659c-.252 0-.457-.073-.615-.22a.71.71 0 01-.238-.544.71.71 0 01.238-.545c.158-.147.363-.22.615-.22s.457.07.615.211a.676.676 0 01.237.527.759.759 0 01-.237.571c-.158.147-.363.22-.615.22zm4.426 5.457c-.504 0-.958-.102-1.362-.307a2.409 2.409 0 01-.941-.87 2.393 2.393 0 01-.333-1.257c0-.469.111-.888.333-1.257.229-.369.542-.656.941-.861a2.897 2.897 0 011.362-.316c.498 0 .931.105 1.3.316.375.205.648.501.817.888l-1.063.571c-.246-.434-.6-.65-1.063-.65-.357 0-.653.117-.888.351-.234.234-.351.554-.351.958 0 .404.117.723.351.958.235.234.531.351.888.351.469 0 .823-.216 1.063-.65l1.063.58a1.877 1.877 0 01-.817.879c-.369.211-.802.316-1.3.316zm7.081-3.673h-1.599v3.603h-1.362v-3.603h-1.6v-1.125h4.561v1.125zm.906-1.125h1.362v2.812l2.303-2.812h1.256v4.728h-1.362v-2.812l-2.293 2.812h-1.266v-4.728zm-64.031 14.577v6.151h-1.415v-4.991h-2.777v4.991h-1.414v-6.151h5.606zm3.81 6.221c-.498 0-.947-.102-1.345-.307a2.366 2.366 0 01-.923-.87 2.393 2.393 0 01-.333-1.257c0-.469.111-.888.333-1.257.223-.369.531-.656.923-.861a2.828 2.828 0 011.345-.316c.498 0 .943.105 1.335.316.393.205.7.492.923.861.223.369.334.788.334 1.257 0 .469-.111.887-.334 1.257-.223.369-.53.659-.923.87a2.837 2.837 0 01-1.335.307zm0-1.125c.351 0 .638-.117.861-.351.228-.24.342-.56.342-.958 0-.398-.114-.715-.342-.949-.223-.24-.51-.36-.861-.36-.352 0-.642.12-.87.36-.229.234-.343.551-.343.949 0 .398.114.718.343.958.228.234.518.351.87.351zm8.176-3.673v4.728h-1.371v-3.603h-1.494l-.044.835c-.023.621-.082 1.136-.175 1.546-.094.41-.246.733-.457.967-.211.234-.504.351-.879.351-.199 0-.436-.035-.712-.105l.071-1.125c.093.012.161.018.202.018.205 0 .357-.073.457-.22.105-.152.175-.343.21-.571a9.22 9.22 0 00.08-.923l.07-1.898h4.042zm1.485 0h1.371v4.728h-1.371v-4.728zm.686-.659c-.252 0-.457-.073-.615-.22a.71.71 0 01-.238-.544.71.71 0 01.238-.545c.158-.147.363-.22.615-.22s.457.07.615.211a.676.676 0 01.237.527.759.759 0 01-.237.571c-.158.147-.363.22-.615.22zm6.148 1.784h-1.599v3.603h-1.362v-3.603h-1.6v-1.125h4.561v1.125zm4.921 0h-1.599v3.603h-1.362v-3.603h-1.599v-1.125h4.56v1.125zm5.305 1.257c0 .017-.009.14-.026.369h-3.577c.065.293.217.524.457.694.241.17.539.255.897.255.246 0 .462-.036.65-.106.193-.076.372-.193.536-.351l.729.791c-.445.509-1.095.764-1.95.764-.534 0-1.005-.102-1.415-.307a2.314 2.314 0 01-.949-.87 2.384 2.384 0 01-.334-1.257c0-.463.108-.879.325-1.248.223-.375.524-.665.905-.87a2.652 2.652 0 011.292-.316c.463 0 .881.099 1.256.299.375.199.668.486.879.861.217.369.325.799.325 1.292zm-2.451-1.415c-.311 0-.572.088-.782.263-.211.176-.34.416-.387.721h2.329a1.117 1.117 0 00-.387-.712 1.147 1.147 0 00-.773-.272zm6.519 3.761l-1.037-1.45-1.072 1.45h-1.494l1.819-2.382-1.757-2.346h1.538l1.001 1.38 1.029-1.38h1.458l-1.757 2.311 1.828 2.417h-1.556zm2.406-4.728h1.362v1.846h2.056v-1.846h1.371v4.728h-1.371v-1.766h-2.056v1.766h-1.362v-4.728zm8.492 4.798c-.498 0-.946-.102-1.345-.307a2.356 2.356 0 01-.922-.87 2.384 2.384 0 01-.334-1.257c0-.469.111-.888.334-1.257.222-.369.53-.656.922-.861a2.831 2.831 0 011.345-.316c.498 0 .943.105 1.335.316.393.205.7.492.923.861.223.369.334.788.334 1.257 0 .469-.111.887-.334 1.257-.223.369-.53.659-.923.87a2.837 2.837 0 01-1.335.307zm0-1.125c.351 0 .638-.117.861-.351.228-.24.343-.56.343-.958 0-.398-.115-.715-.343-.949-.223-.24-.51-.36-.861-.36-.352 0-.642.12-.87.36-.229.234-.343.551-.343.949 0 .398.114.718.343.958.228.234.518.351.87.351zm8.176-3.673v4.728h-1.371v-3.603h-1.493l-.044.835c-.024.621-.082 1.136-.176 1.546-.094.41-.246.733-.457.967-.211.234-.504.351-.879.351-.199 0-.436-.035-.712-.105l.071-1.125c.093.012.161.018.202.018.205 0 .357-.073.457-.22.105-.152.175-.343.211-.571.035-.234.061-.542.079-.923l.07-1.898h4.042zm3.709 4.798c-.498 0-.947-.102-1.345-.307a2.366 2.366 0 01-.923-.87 2.393 2.393 0 01-.333-1.257c0-.469.111-.888.333-1.257.223-.369.531-.656.923-.861a2.828 2.828 0 011.345-.316c.498 0 .943.105 1.335.316.393.205.7.492.923.861.223.369.334.788.334 1.257 0 .469-.111.887-.334 1.257-.223.369-.53.659-.923.87a2.837 2.837 0 01-1.335.307zm0-1.125c.351 0 .638-.117.861-.351.228-.24.342-.56.342-.958 0-.398-.114-.715-.342-.949-.223-.24-.51-.36-.861-.36-.352 0-.642.12-.87.36-.229.234-.343.551-.343.949 0 .398.114.718.343.958.228.234.518.351.87.351zm7.498-2.548h-2.425v3.603h-1.363v-4.728h3.788v1.125zm.902-1.125h1.362v2.812l2.302-2.812h1.257v4.728h-1.362v-2.812l-2.294 2.812h-1.265v-4.728zm-59.494 21.728l-.009-3.682-1.81 3.032h-.633l-1.81-2.962v3.612h-1.336v-6.151h1.178l2.302 3.822 2.267-3.822h1.177l.009 6.151h-1.335zm4.77-4.798c.732 0 1.295.176 1.687.527.393.346.589.87.589 1.573v2.698h-1.283v-.589c-.258.439-.738.659-1.441.659-.363 0-.68-.061-.949-.184a1.405 1.405 0 01-.606-.51 1.324 1.324 0 01-.211-.738c0-.44.164-.785.492-1.037.334-.252.846-.378 1.538-.378h1.089c0-.299-.091-.527-.272-.685-.182-.164-.454-.247-.817-.247a2.35 2.35 0 00-.747.124 1.89 1.89 0 00-.615.316l-.492-.958c.257-.182.565-.322.922-.422a4.223 4.223 0 011.116-.149zm-.105 3.945c.234 0 .442-.052.624-.158a.909.909 0 00.386-.483v-.483h-.94c-.562 0-.844.184-.844.553 0 .176.068.317.203.422.14.1.331.149.571.149zm6.533-3.945c.44 0 .838.102 1.195.307.364.2.648.484.853.853.205.363.307.788.307 1.274s-.102.914-.307 1.283a2.204 2.204 0 01-.853.852 2.412 2.412 0 01-1.195.299c-.603 0-1.078-.19-1.423-.571v2.206h-1.371v-6.433h1.309v.545c.34-.41.835-.615 1.485-.615zm-.237 3.743c.352 0 .639-.117.861-.351.229-.24.343-.56.343-.958 0-.398-.114-.715-.343-.949a1.12 1.12 0 00-.861-.36c-.351 0-.641.12-.87.36-.223.234-.334.551-.334.949 0 .398.111.718.334.958.229.234.519.351.87.351zm5.811-.738h-.711v1.793h-1.371v-4.728h1.371v1.837h.738l1.283-1.837h1.458l-1.652 2.267 1.767 2.461h-1.617l-1.266-1.793zm8.181-.553c0 .017-.008.14-.026.369h-3.576c.064.293.216.524.457.694.24.17.539.255.896.255.246 0 .463-.036.65-.106.193-.076.372-.193.536-.351l.73.791c-.446.509-1.096.764-1.951.764-.533 0-1.005-.102-1.415-.307a2.32 2.32 0 01-.949-.87 2.384 2.384 0 01-.334-1.257c0-.463.108-.879.325-1.248.223-.375.524-.665.905-.87a2.652 2.652 0 011.292-.316c.463 0 .882.099 1.257.299.375.199.667.486.878.861.217.369.325.799.325 1.292zm-2.451-1.415c-.311 0-.571.088-.782.263-.211.176-.34.416-.387.721h2.329a1.117 1.117 0 00-.387-.712 1.147 1.147 0 00-.773-.272zm7.487.158h-1.599v3.603h-1.363v-3.603h-1.599v-1.125h4.561v1.125zm2.923 3.673c-.498 0-.946-.102-1.344-.307a2.359 2.359 0 01-.923-.87 2.394 2.394 0 01-.334-1.257c0-.469.112-.888.334-1.257.223-.369.53-.656.923-.861a2.824 2.824 0 011.344-.316c.498 0 .944.105 1.336.316.393.205.7.492.923.861.222.369.334.788.334 1.257 0 .469-.112.887-.334 1.257-.223.369-.53.659-.923.87a2.841 2.841 0 01-1.336.307zm0-1.125c.352 0 .639-.117.861-.351.229-.24.343-.56.343-.958 0-.398-.114-.715-.343-.949a1.12 1.12 0 00-.861-.36c-.351 0-.641.12-.87.36-.228.234-.342.551-.342.949 0 .398.114.718.342.958.229.234.519.351.87.351zm8.177-3.673v4.728h-1.371v-3.603h-1.494l-.044.835c-.023.621-.082 1.136-.176 1.546-.093.41-.246.733-.456.967-.211.234-.504.351-.879.351-.199 0-.437-.035-.712-.105l.07-1.125c.094.012.161.018.202.018.205 0 .358-.073.457-.22.106-.152.176-.343.211-.571.035-.234.062-.542.079-.923l.071-1.898h4.042zm3.708 4.798c-.498 0-.946-.102-1.344-.307a2.359 2.359 0 01-.923-.87 2.384 2.384 0 01-.334-1.257c0-.469.111-.888.334-1.257.223-.369.53-.656.923-.861a2.824 2.824 0 011.344-.316c.498 0 .943.105 1.336.316.392.205.7.492.923.861.222.369.334.788.334 1.257 0 .469-.112.887-.334 1.257a2.366 2.366 0 01-.923.87 2.844 2.844 0 01-1.336.307zm0-1.125c.352 0 .639-.117.861-.351.229-.24.343-.56.343-.958 0-.398-.114-.715-.343-.949a1.12 1.12 0 00-.861-.36c-.351 0-.641.12-.87.36-.228.234-.342.551-.342.949 0 .398.114.718.342.958.229.234.519.351.87.351zm7.498-2.548h-2.425v3.603h-1.362v-4.728h3.787v1.125zm.903-1.125h1.362v2.812l2.302-2.812h1.257v4.728h-1.362v-2.812l-2.294 2.812h-1.265v-4.728zM94.784 231.43l-.009-3.682-1.81 3.031h-.633l-1.81-2.961v3.612h-1.336v-6.151h1.178l2.302 3.822 2.267-3.822h1.178l.009 6.151h-1.336zm7.618-2.347c0 .018-.009.141-.027.37h-3.576c.064.292.216.524.457.694.24.17.539.255.896.255.246 0 .463-.036.65-.106.194-.076.372-.193.536-.351l.73.79c-.446.51-1.096.765-1.951.765-.533 0-1.005-.103-1.415-.308-.41-.21-.726-.5-.949-.87a2.382 2.382 0 01-.334-1.256c0-.463.109-.879.325-1.248.223-.375.525-.665.905-.87a2.651 2.651 0 011.292-.316c.463 0 .882.099 1.257.299.375.199.668.486.878.861.217.369.326.799.326 1.291zm-2.452-1.414c-.31 0-.571.088-.782.263-.211.176-.34.416-.387.721h2.329a1.117 1.117 0 00-.387-.712 1.14 1.14 0 00-.773-.272zm7.575.158h-1.599v3.603h-1.362v-3.603h-1.6v-1.125h4.561v1.125zm3.78-1.195c.439 0 .838.102 1.195.307.363.2.647.484.852.853.205.363.308.788.308 1.274s-.103.914-.308 1.283a2.208 2.208 0 01-.852.852 2.414 2.414 0 01-1.195.299c-.604 0-1.078-.19-1.424-.571v2.205h-1.371v-6.432h1.31v.545c.339-.41.835-.615 1.485-.615zm-.237 3.743c.351 0 .638-.117.861-.351.228-.24.342-.56.342-.958 0-.398-.114-.715-.342-.949-.223-.24-.51-.36-.861-.36-.352 0-.642.12-.87.36-.223.234-.334.551-.334.949 0 .398.111.718.334.958.228.234.518.351.87.351zm3.816-3.673h1.362v2.812l2.303-2.812h1.256v4.728h-1.362v-2.812l-2.293 2.812h-1.266v-4.728zm8.585 2.935h-.712v1.793h-1.371v-4.728h1.371v1.837h.738l1.283-1.837h1.459l-1.652 2.267 1.766 2.461h-1.617l-1.265-1.793zm3.819-2.935h1.362v2.812l2.302-2.812h1.257v4.728h-1.362v-2.812l-2.294 2.812h-1.265v-4.728zm14.553 3.603v2.144h-1.274v-1.019h-3.321v1.019h-1.275v-2.144h.194c.293-.006.495-.179.606-.519.111-.339.182-.823.211-1.449l.062-1.635h4.121v3.603h.676zm-3.62-1.872a8.139 8.139 0 01-.114 1.178c-.053.304-.155.536-.308.694h1.995v-2.478h-1.547l-.026.606zm9.281-1.731v4.728h-1.371v-3.603h-1.494l-.044.835c-.023.621-.082 1.136-.175 1.546-.094.41-.246.733-.457.967-.211.234-.504.351-.879.351-.199 0-.436-.035-.712-.105l.07-1.125c.094.012.162.018.203.018.205 0 .357-.074.457-.22.105-.152.175-.343.21-.571a9.22 9.22 0 00.08-.923l.07-1.898h4.042zm5.782 0v4.728h-1.221v-1.354h-1.011l-.896 1.354h-1.459l1.081-1.547c-.328-.129-.58-.313-.756-.553a1.525 1.525 0 01-.254-.888c0-.557.199-.984.597-1.283.404-.305.958-.457 1.661-.457h2.258zm-2.232 1.116c-.293 0-.515.053-.668.158-.146.106-.219.276-.219.51 0 .234.07.407.211.518.146.106.366.159.659.159h1.028v-1.345h-1.011zm-57.27 14.884v4.728h-1.37v-3.603h-1.969v3.603h-1.362v-4.728h4.701zm4.364-.07c.44 0 .837.102 1.195.307.363.2.647.484.852.853.205.363.308.788.308 1.274s-.103.914-.308 1.283a2.206 2.206 0 01-.852.852 2.415 2.415 0 01-1.195.299c-.604 0-1.078-.19-1.424-.571v2.205h-1.37v-6.432h1.309v.545c.34-.41.834-.615 1.485-.615zm-.237 3.743c.35 0 .638-.117.86-.351.23-.24.343-.56.343-.958 0-.398-.114-.715-.342-.949-.223-.24-.51-.36-.861-.36-.352 0-.642.12-.87.36-.223.234-.334.551-.334.949 0 .398.11.718.334.958.228.234.518.351.87.351zm3.816-3.673h1.362v2.812l2.302-2.812h1.257v4.728h-1.362v-2.812l-2.294 2.812h-1.265v-4.728zm6.502 0h1.362v2.812l2.303-2.812h1.256v4.728h-1.362v-2.812l-2.293 2.812h-1.266v-4.728zm2.373-.51c-1.031 0-1.549-.454-1.555-1.362h.896c.006.205.061.367.167.484.111.111.272.167.483.167.211 0 .372-.056.484-.167.117-.117.175-.279.175-.484h.914c-.006.908-.527 1.362-1.564 1.362zm4.13.51h1.362v1.845h2.056v-1.845h1.371v4.728h-1.371v-1.767h-2.056v1.767h-1.362v-4.728zm10.565 0v4.728h-1.221v-1.354h-1.011l-.896 1.354h-1.459l1.081-1.547c-.328-.129-.58-.313-.756-.553a1.525 1.525 0 01-.255-.888c0-.557.2-.984.598-1.283.404-.305.958-.457 1.661-.457h2.258zm-2.232 1.116c-.293 0-.515.053-.668.158-.146.106-.219.276-.219.51 0 .234.07.407.21.518.147.106.367.159.66.159h1.028v-1.345h-1.011zm7.785.009h-1.599v3.603h-1.362v-3.603h-1.6v-1.125h4.561v1.125zm5.009 0h-1.599v3.603h-1.362v-3.603h-1.599v-1.125h4.56v1.125zm5.152-1.125v4.728h-1.221v-1.354h-1.011l-.896 1.354h-1.459l1.081-1.547c-.328-.129-.58-.313-.756-.553a1.525 1.525 0 01-.255-.888c0-.557.199-.984.598-1.283.404-.305.958-.457 1.661-.457h2.258zm-2.232 1.116c-.293 0-.515.053-.668.158-.146.106-.219.276-.219.51 0 .234.07.407.21.518.147.106.367.159.659.159h1.029v-1.345h-1.011zm9.351-1.186c.439 0 .838.102 1.195.307.363.2.647.484.852.853.205.363.308.788.308 1.274s-.103.914-.308 1.283a2.208 2.208 0 01-.852.852 2.414 2.414 0 01-1.195.299c-.603 0-1.078-.19-1.424-.571v2.205h-1.37v-6.432h1.309v.545c.34-.41.835-.615 1.485-.615zm-.237 3.743c.351 0 .638-.117.861-.351.228-.24.343-.56.343-.958 0-.398-.115-.715-.343-.949-.223-.24-.51-.36-.861-.36-.352 0-.642.12-.87.36-.223.234-.334.551-.334.949 0 .398.111.718.334.958.228.234.518.351.87.351zm3.808-3.673h1.37v4.728h-1.37v-4.728zm.685-.659c-.252 0-.457-.073-.615-.22a.712.712 0 01-.237-.544c0-.217.079-.399.237-.545.158-.147.363-.22.615-.22s.457.07.615.211a.676.676 0 01.237.527.759.759 0 01-.237.571c-.158.147-.363.22-.615.22zm9.479.659v4.728h-7.215v-4.728h1.362v3.603h1.573v-3.603h1.362v3.603h1.556v-3.603h1.362zm6.175 2.381c0 .018-.009.141-.027.37h-3.576c.064.292.217.524.457.694.24.17.539.255.896.255.246 0 .463-.036.65-.106.194-.076.372-.193.536-.351l.73.79c-.445.51-1.096.765-1.951.765-.533 0-1.005-.103-1.415-.308-.41-.21-.726-.5-.949-.87a2.387 2.387 0 01-.334-1.256c0-.463.109-.879.325-1.248a2.31 2.31 0 01.906-.87 2.648 2.648 0 011.291-.316c.463 0 .882.099 1.257.299.375.199.668.486.879.861.216.369.325.799.325 1.291zm-2.452-1.414c-.31 0-.571.088-.782.263-.211.176-.34.416-.387.721h2.329a1.117 1.117 0 00-.387-.712 1.14 1.14 0 00-.773-.272zm3.766-.967h1.362v1.845h2.056v-1.845h1.371v4.728h-1.371v-1.767h-2.056v1.767h-1.362v-4.728zm8.922 1.512c.615.005 1.087.146 1.415.421.328.27.492.653.492 1.151 0 .522-.184.929-.554 1.222-.363.287-.875.43-1.537.43l-2.373-.008v-4.728h1.362v1.512h1.195zm-.307 2.249c.263.006.465-.05.606-.167.141-.117.211-.293.211-.527 0-.229-.07-.396-.211-.501-.135-.105-.337-.161-.606-.167l-.888-.009v1.371h.888z" fill="#fff"/><path d="M68.702 231.5a.824.824 0 01-.606-.246.834.834 0 01-.246-.615.79.79 0 01.246-.607.84.84 0 01.606-.237.84.84 0 01.606.237.79.79 0 01.246.607.834.834 0 01-.246.615.824.824 0 01-.606.246zm4.28.035c-.51 0-.964-.126-1.362-.378-.399-.252-.712-.615-.94-1.089-.223-.481-.335-1.052-.335-1.714 0-.662.112-1.23.334-1.705.229-.48.542-.846.94-1.098a2.494 2.494 0 011.363-.378c.51 0 .963.126 1.362.378.398.252.709.618.931 1.098.229.475.343 1.043.343 1.705 0 .662-.114 1.233-.343 1.714-.223.474-.533.837-.931 1.089a2.493 2.493 0 01-1.362.378zm0-1.204c.374 0 .667-.161.878-.483.217-.322.325-.82.325-1.494s-.108-1.172-.325-1.494a.994.994 0 00-.878-.483c-.37 0-.662.161-.88.483-.21.322-.316.82-.316 1.494s.106 1.172.317 1.494c.217.322.51.483.879.483zm5.912-5.052v6.151h-1.423v-5.009h-1.23v-1.142h2.653z" fill="#E73E51"/><path opacity=".3" d="M26.258 127.617v.563h-4.35v-6.151h4.218v.562h-3.568v2.188h3.181v.554h-3.18v2.284h3.699zm3.235-1.494H28.44v2.057h-.624v-4.622h.624v2.029h1.063l1.626-2.029h.676l-1.819 2.24 1.951 2.382h-.738l-1.705-2.057zm5.435 2.101c-.445 0-.846-.1-1.204-.299a2.239 2.239 0 01-.843-.844 2.39 2.39 0 01-.308-1.212c0-.451.103-.856.308-1.213a2.18 2.18 0 01.843-.835 2.432 2.432 0 011.204-.299c.445 0 .847.1 1.204.299.357.199.636.478.835.835.205.357.307.762.307 1.213 0 .451-.102.855-.307 1.212-.2.358-.478.639-.835.844a2.432 2.432 0 01-1.204.299zm0-.554c.328 0 .621-.073.879-.22a1.59 1.59 0 00.615-.641 1.97 1.97 0 00.22-.94 1.98 1.98 0 00-.22-.941 1.523 1.523 0 00-.615-.632 1.688 1.688 0 00-.879-.229c-.328 0-.624.076-.887.229a1.597 1.597 0 00-.616.632 1.98 1.98 0 00-.22.941c0 .351.074.665.22.94.153.275.358.489.616.641.263.147.559.22.887.22zm3.943-4.112h.624v2.047h2.909v-2.047h.624v4.622h-.624v-2.039h-2.909v2.039h-.624v-4.622zm8.1 4.666c-.445 0-.846-.1-1.203-.299a2.239 2.239 0 01-.844-.844 2.39 2.39 0 01-.307-1.212c0-.451.102-.856.307-1.213a2.18 2.18 0 01.844-.835 2.432 2.432 0 011.204-.299c.445 0 .846.1 1.203.299.358.199.636.478.835.835.205.357.308.762.308 1.213 0 .451-.103.855-.308 1.212a2.17 2.17 0 01-.835.844 2.432 2.432 0 01-1.203.299zm0-.554c.329 0 .622-.073.88-.22a1.58 1.58 0 00.614-.641 1.97 1.97 0 00.22-.94c0-.352-.073-.665-.22-.941a1.523 1.523 0 00-.615-.632 1.688 1.688 0 00-.878-.229c-.328 0-.624.076-.888.229a1.597 1.597 0 00-.615.632c-.147.276-.22.589-.22.941 0 .351.073.665.22.94.152.275.357.489.615.641.264.147.56.22.888.22zm9.11-4.112v4.622h-.57v-3.656l-1.872 3.093h-.281l-1.872-3.102v3.665h-.571v-4.622h.633l1.96 3.33 1.994-3.33h.58zm2.04 0h.624v4.622h-.624v-4.622zm.316-1.011a.442.442 0 01-.325-.132.43.43 0 01-.132-.316c0-.117.044-.22.132-.308a.442.442 0 01.325-.132c.129 0 .237.044.325.132a.394.394 0 01.132.299.442.442 0 01-.132.325.442.442 0 01-.325.132zm5.9 1.011v4.622h-.57v-1.529H62.14l-1.073 1.529h-.676l1.15-1.617c-.356-.1-.632-.27-.825-.51-.193-.24-.29-.545-.29-.914 0-.515.176-.908.527-1.177.352-.27.832-.404 1.441-.404h1.942zm-3.277 1.599c0 .685.436 1.028 1.309 1.028h1.397v-2.074h-1.353c-.902 0-1.353.349-1.353 1.046zm-35.813 14.401v4.622h-.624v-1.925a3.879 3.879 0 01-1.573.352c-.556 0-.99-.126-1.3-.378-.31-.258-.466-.642-.466-1.151v-1.52h.624v1.485c0 .345.111.609.334.79.223.176.53.264.923.264.433 0 .92-.114 1.458-.343v-2.196h.624zm3.626-.036c.604 0 1.066.153 1.389.457.322.299.483.744.483 1.336v2.865h-.598v-.721a1.43 1.43 0 01-.624.563c-.27.134-.591.202-.966.202-.516 0-.926-.123-1.23-.369a1.193 1.193 0 01-.457-.976c0-.392.14-.709.421-.949.287-.24.741-.36 1.363-.36h1.467v-.281c0-.399-.111-.7-.334-.905-.223-.211-.548-.317-.975-.317-.293 0-.575.05-.844.15-.27.093-.5.225-.694.395l-.281-.466c.234-.199.515-.351.843-.457a3.214 3.214 0 011.037-.167zm-.22 4.21c.352 0 .654-.08.906-.238.252-.164.439-.398.562-.703v-.755h-1.45c-.79 0-1.186.275-1.186.826 0 .269.102.483.307.641.205.152.492.229.861.229zm5.95.492c-.457 0-.867-.1-1.23-.299a2.18 2.18 0 01-.844-.835 2.438 2.438 0 01-.308-1.221c0-.451.103-.856.308-1.213a2.18 2.18 0 01.843-.835 2.518 2.518 0 011.23-.299 2.3 2.3 0 011.064.238c.316.152.565.378.747.676l-.466.317a1.42 1.42 0 00-.58-.51 1.688 1.688 0 00-.764-.176 1.8 1.8 0 00-.906.229 1.58 1.58 0 00-.623.632c-.147.276-.22.589-.22.941 0 .357.073.673.22.949.152.269.36.48.623.632.27.147.572.22.906.22.275 0 .53-.056.764-.167a1.42 1.42 0 00.58-.51l.466.317c-.182.299-.43.527-.747.685a2.42 2.42 0 01-1.063.229zm7.14-4.666l-2.31 5.175c-.188.434-.404.741-.65.923a1.45 1.45 0 01-.888.272 1.82 1.82 0 01-.624-.105 1.355 1.355 0 01-.5-.316l.29-.466c.233.234.515.351.843.351.21 0 .39-.058.536-.175.152-.118.293-.317.422-.598l.202-.448-2.065-4.613h.65l1.74 3.927 1.74-3.927h.615z" fill="#D3CFE6"/><path d="M.931 128.224a.456.456 0 01-.333-.141.483.483 0 01-.132-.343c0-.134.044-.246.132-.334a.458.458 0 01.333-.14c.13 0 .24.047.334.14.094.088.141.2.141.334a.467.467 0 01-.14.343.456.456 0 01-.335.141zm4.009.008c-.475 0-.9-.126-1.274-.377-.37-.252-.66-.613-.87-1.081-.205-.475-.308-1.031-.308-1.67 0-.638.103-1.192.308-1.661.21-.474.5-.837.87-1.089.375-.252.8-.378 1.274-.378.475 0 .896.126 1.265.378.375.252.668.615.88 1.089.21.469.315 1.023.315 1.661 0 .639-.105 1.195-.316 1.67-.21.468-.504.829-.879 1.081-.369.251-.79.377-1.265.377zm0-.58c.357 0 .67-.099.94-.298.276-.2.49-.489.642-.87.152-.381.228-.841.228-1.38 0-.539-.076-.999-.228-1.38-.153-.38-.366-.67-.642-.869-.27-.2-.583-.299-.94-.299s-.674.099-.949.299c-.27.199-.48.489-.633.869-.152.381-.228.841-.228 1.38 0 .539.076.999.228 1.38.153.381.363.67.633.87.275.199.592.298.949.298zm7.813-.035v.563H8.44v-.448l2.557-2.505c.322-.316.539-.589.65-.817a1.56 1.56 0 00.176-.703c0-.363-.126-.644-.378-.844-.246-.205-.6-.307-1.063-.307-.72 0-1.28.228-1.679.685l-.448-.386c.24-.282.545-.498.914-.651a3.342 3.342 0 011.266-.228c.626 0 1.121.149 1.485.448.369.293.553.697.553 1.213 0 .316-.07.621-.21.914-.141.292-.408.629-.8 1.01l-2.092 2.056h3.383z" fill="#E73E51"/><path opacity=".3" d="M95.11 8.438v1.942h-.607V9h-5.37l-.008 1.38h-.606l.008-1.942h.308c.404-.024.685-.343.844-.958.158-.621.254-1.5.29-2.636l.07-1.995h4.147v5.589h.923zm-4.562-3.533c-.029.937-.102 1.71-.22 2.32-.11.603-.301 1.008-.57 1.213h3.787V3.41H90.6l-.053 1.494zm7.592-.562c.604 0 1.066.152 1.389.457.322.298.483.744.483 1.335V9h-.598v-.72c-.14.24-.348.427-.624.562-.269.135-.591.202-.966.202-.516 0-.926-.123-1.23-.37a1.192 1.192 0 01-.457-.975c0-.392.14-.708.421-.949.287-.24.742-.36 1.362-.36h1.468v-.28c0-.398-.111-.7-.334-.905-.222-.211-.548-.316-.975-.316-.293 0-.574.05-.844.149-.27.094-.5.225-.694.395l-.281-.465c.234-.2.515-.352.843-.457a3.205 3.205 0 011.037-.167zm-.22 4.209c.352 0 .654-.08.906-.237a1.47 1.47 0 00.562-.703v-.756h-1.45c-.79 0-1.186.275-1.186.826 0 .27.102.483.307.641.205.153.493.229.862.229zm4.016-4.174h.624v2.047h2.909V4.378h.624V9h-.624V6.961h-2.909V9h-.624V4.378zm6.194 0h.624V9h-.624V4.378zm.316-1.01a.442.442 0 01-.325-.133.431.431 0 010-.623.441.441 0 01.325-.132c.129 0 .237.044.325.132a.393.393 0 01.132.298.441.441 0 01-.132.325.442.442 0 01-.325.132zm9.422 5.087v1.661h-.589V9h-4.139v1.116h-.589v-1.66h.264c.31-.018.521-.247.633-.686.111-.44.187-1.055.228-1.846l.062-1.546h3.409v4.077h.721zm-3.621-2.495a11.596 11.596 0 01-.167 1.625c-.082.422-.228.712-.439.87h2.882V4.931H114.3l-.053 1.029zm8.879-1.582V9h-.624V4.931h-2.215l-.061 1.143c-.047.96-.158 1.699-.334 2.214-.176.516-.489.774-.94.774-.123 0-.273-.024-.449-.07l.044-.537c.106.024.179.035.22.035.24 0 .422-.111.545-.334.123-.222.205-.498.246-.826.041-.328.076-.761.105-1.3l.08-1.652h3.383zm5.587 0V9h-.571V7.471h-1.626L125.444 9h-.677l1.152-1.617c-.358-.1-.633-.27-.826-.51-.194-.24-.29-.544-.29-.913 0-.516.175-.908.527-1.178.351-.27.832-.404 1.441-.404h1.942zm-3.278 1.6c0 .685.437 1.027 1.31 1.027h1.397V4.931h-1.353c-.903 0-1.354.349-1.354 1.046zm-31.978 14.4V25h-.624v-4.069h-2.9V25h-.624v-4.622h4.148zm4.419-.035c.433 0 .826.1 1.177.299.352.193.627.468.826.826.199.357.299.764.299 1.22 0 .464-.1.874-.299 1.231a2.14 2.14 0 01-.826.835c-.346.193-.738.29-1.177.29-.375 0-.715-.076-1.02-.229a1.968 1.968 0 01-.738-.685v2.575h-.624v-6.327h.598v.914c.187-.305.433-.54.738-.703.31-.164.659-.246 1.046-.246zm-.044 4.147c.322 0 .615-.073.878-.22.264-.152.469-.366.616-.64a1.91 1.91 0 00.228-.941 1.86 1.86 0 00-.228-.931 1.583 1.583 0 00-.616-.642 1.725 1.725 0 00-.878-.229c-.328 0-.624.077-.888.229a1.662 1.662 0 00-.615.642c-.146.269-.22.58-.22.93 0 .352.074.666.22.941.152.275.357.49.615.642.264.146.56.22.888.22zm5.857.554c-.445 0-.847-.1-1.204-.299a2.247 2.247 0 01-.844-.843 2.393 2.393 0 01-.307-1.213c0-.451.102-.855.307-1.213.205-.357.487-.635.844-.834a2.43 2.43 0 011.204-.3c.445 0 .846.1 1.204.3.357.199.635.477.834.834.206.358.308.762.308 1.213 0 .451-.102.855-.308 1.213a2.18 2.18 0 01-.834.843c-.358.2-.759.299-1.204.299zm0-.554c.328 0 .621-.073.879-.22a1.59 1.59 0 00.615-.64c.146-.276.219-.59.219-.941 0-.352-.073-.665-.219-.94a1.532 1.532 0 00-.615-.633 1.696 1.696 0 00-.879-.229c-.328 0-.624.077-.888.229a1.601 1.601 0 00-.615.633c-.146.275-.22.588-.22.94 0 .351.074.665.22.94.152.275.358.49.615.642.264.146.56.22.888.22zm7.212-3.558h-2.645V25h-.624v-4.622h3.269v.553zm1.165-.554h.624v2.047h2.909v-2.047h.624V25h-.624v-2.039h-2.909V25h-.624v-4.622zm8.1 4.666c-.445 0-.846-.1-1.203-.299a2.24 2.24 0 01-.844-.843 2.393 2.393 0 01-.308-1.213c0-.451.103-.855.308-1.213.205-.357.486-.635.844-.834.357-.2.758-.3 1.203-.3.446 0 .847.1 1.204.3.358.199.636.477.835.834.205.358.308.762.308 1.213 0 .451-.103.855-.308 1.213a2.175 2.175 0 01-.835.843 2.42 2.42 0 01-1.204.299zm0-.554c.329 0 .621-.073.879-.22a1.58 1.58 0 00.615-.64c.147-.276.22-.59.22-.941 0-.352-.073-.665-.22-.94a1.52 1.52 0 00-.615-.633 1.694 1.694 0 00-.879-.229c-.328 0-.623.077-.887.229a1.595 1.595 0 00-.615.633c-.147.275-.22.588-.22.94 0 .351.073.665.22.94.152.275.357.49.615.642a1.8 1.8 0 00.887.22zm6.159-1.898c.328.076.58.208.756.396a.95.95 0 01.272.685c0 .27-.094.51-.281.72a1.78 1.78 0 01-.747.493 3.132 3.132 0 01-1.046.167 3.5 3.5 0 01-.984-.14 2.604 2.604 0 01-.843-.431l.21-.466c.211.158.457.281.739.369.281.088.565.132.852.132.428 0 .776-.08 1.046-.238.275-.164.413-.383.413-.659 0-.246-.112-.436-.334-.57-.223-.141-.528-.212-.914-.212h-.791v-.457h.756c.345 0 .624-.064.834-.193.211-.135.317-.313.317-.536 0-.246-.12-.44-.36-.58-.235-.14-.542-.21-.923-.21-.498 0-.99.125-1.476.377l-.176-.483a3.662 3.662 0 011.713-.43c.352 0 .668.052.949.157.287.1.51.243.668.43a.958.958 0 01.246.651.904.904 0 01-.246.624 1.405 1.405 0 01-.65.404zm6.636-2.214l-2.311 5.176c-.188.433-.404.74-.65.922a1.454 1.454 0 01-.888.273c-.222 0-.43-.035-.624-.106a1.358 1.358 0 01-.501-.316l.29-.466c.235.235.516.352.844.352a.83.83 0 00.536-.176c.152-.117.293-.316.422-.598l.202-.448-2.065-4.613h.65l1.74 3.928 1.74-3.928h.615zm4.179 2.232c.627.146.941.524.941 1.133 0 .405-.15.715-.448.932-.299.217-.744.325-1.336.325h-2.1v-4.622h2.038c.528 0 .941.102 1.239.307.299.205.449.498.449.88 0 .251-.071.468-.211.65a1.208 1.208 0 01-.572.395zm-2.337-.176h1.388c.358 0 .63-.067.818-.202.193-.135.29-.331.29-.589 0-.258-.097-.45-.29-.58-.188-.129-.46-.193-.818-.193h-1.388v1.564zm1.468 2.074c.398 0 .697-.064.896-.193.199-.13.299-.331.299-.607 0-.275-.091-.477-.273-.606-.181-.135-.468-.202-.861-.202h-1.529v1.608h1.468zm5.126-4.165c.603 0 1.066.152 1.388.457.323.298.484.744.484 1.335V25h-.598v-.72a1.42 1.42 0 01-.624.562c-.269.135-.591.202-.966.202-.516 0-.926-.123-1.231-.37a1.193 1.193 0 01-.456-.974c0-.393.14-.71.421-.95.287-.24.741-.36 1.362-.36h1.468v-.281c0-.398-.111-.7-.334-.905-.223-.211-.548-.317-.975-.317-.293 0-.575.05-.844.15a2.06 2.06 0 00-.694.395l-.281-.465c.234-.2.515-.352.843-.457a3.207 3.207 0 011.037-.167zm-.22 4.209c.352 0 .654-.08.905-.237.252-.164.44-.399.563-.703v-.756h-1.45c-.791 0-1.186.275-1.186.826 0 .27.102.483.307.641.205.153.492.229.861.229zm4.016-4.174h.624v2.047h2.909v-2.047h.624V25h-.624v-2.039h-2.909V25h-.624v-4.622zm6.194 0h.624v2.047h2.908v-2.047h.624V25h-.624v-2.039h-2.908V25h-.624v-4.622zm9.743 0V25h-.571v-1.529h-1.626L157.861 25h-.676l1.151-1.617c-.358-.1-.633-.27-.826-.51-.194-.24-.29-.544-.29-.913 0-.516.175-.909.527-1.178.351-.27.832-.404 1.441-.404h1.942zm-3.278 1.6c0 .685.437 1.027 1.31 1.027h1.397v-2.073h-1.353c-.903 0-1.354.348-1.354 1.045zm10.301-3.13c.785 0 1.4.188 1.845.563.445.375.668.89.668 1.547 0 .656-.223 1.172-.668 1.546-.445.37-1.06.554-1.845.554h-1.652V25h-.651v-6.151h2.303zm-.018 3.639c.609 0 1.075-.132 1.397-.396.322-.27.484-.647.484-1.133 0-.498-.162-.879-.484-1.142-.322-.27-.788-.405-1.397-.405h-1.634v3.076h1.634zM176.536 25l-1.406-1.977a4.444 4.444 0 01-.492.026h-1.652V25h-.651v-6.151h2.303c.785 0 1.4.187 1.845.562.445.375.668.89.668 1.547 0 .48-.123.887-.369 1.221-.24.328-.586.566-1.037.712L177.248 25h-.712zm-1.916-2.504c.609 0 1.075-.135 1.397-.405.323-.27.484-.647.484-1.133 0-.498-.161-.879-.484-1.142-.322-.27-.788-.405-1.397-.405h-1.634v3.085h1.634z" fill="#D3CFE6"/><path d="M67.935 9.044a.456.456 0 01-.334-.14.483.483 0 01-.131-.343c0-.135.044-.246.131-.334a.456.456 0 01.334-.14c.13 0 .24.046.334.14.094.088.14.199.14.334a.466.466 0 01-.14.342.456.456 0 01-.334.14zm4.009.009c-.475 0-.9-.126-1.274-.378-.37-.252-.66-.612-.87-1.081-.205-.474-.308-1.031-.308-1.67 0-.638.103-1.192.308-1.66.21-.475.5-.838.87-1.09.375-.252.8-.378 1.274-.378s.896.126 1.265.378c.375.252.668.615.879 1.09.21.468.316 1.022.316 1.66 0 .639-.105 1.196-.316 1.67-.21.469-.504.829-.879 1.08-.369.253-.79.379-1.265.379zm0-.58c.357 0 .67-.1.94-.299.275-.2.49-.49.642-.87.152-.38.228-.84.228-1.38 0-.539-.076-.998-.228-1.38-.153-.38-.367-.67-.642-.87a1.54 1.54 0 00-.94-.298c-.357 0-.674.1-.95.299-.269.199-.48.489-.632.87-.152.38-.228.84-.228 1.38 0 .538.076.998.228 1.379.153.38.363.67.633.87.275.2.592.299.949.299zm5.636-2.988c.644.035 1.133.21 1.467.527.34.31.51.718.51 1.222 0 .351-.085.665-.255.94-.17.27-.422.483-.756.641-.334.159-.74.238-1.221.238-.445 0-.867-.07-1.266-.211-.392-.147-.708-.34-.949-.58l.308-.501c.205.21.477.384.817.518.34.13.703.194 1.09.194.504 0 .893-.109 1.168-.325.276-.223.413-.528.413-.914 0-.381-.137-.68-.413-.897-.275-.216-.69-.325-1.247-.325h-.44v-.465l1.705-2.136h-3.146V2.85h3.955v.448l-1.74 2.188z" fill="#E73E51"/><path opacity=".3" d="M241.75 8.438v1.942h-.607V9h-5.369l-.009 1.38h-.606l.009-1.942h.308c.404-.024.685-.343.843-.958.158-.621.255-1.5.29-2.636l.07-1.995h4.148v5.589h.923zm-4.561-3.533c-.029.937-.102 1.71-.22 2.32-.111.603-.301 1.008-.571 1.213h3.788V3.41h-2.944l-.053 1.494zm7.779 4.139c-.445 0-.846-.1-1.203-.299a2.24 2.24 0 01-.844-.843 2.393 2.393 0 01-.308-1.213c0-.451.103-.855.308-1.213.205-.357.486-.635.844-.835a2.428 2.428 0 011.203-.298c.446 0 .847.1 1.204.298.358.2.636.478.835.835.205.358.308.762.308 1.213 0 .451-.103.855-.308 1.213a2.174 2.174 0 01-.835.843 2.42 2.42 0 01-1.204.299zm0-.554c.329 0 .621-.073.879-.22.264-.152.469-.365.615-.64.147-.276.22-.59.22-.941 0-.352-.073-.665-.22-.94a1.52 1.52 0 00-.615-.633 1.693 1.693 0 00-.879-.228 1.74 1.74 0 00-.887.228 1.595 1.595 0 00-.615.633c-.147.275-.22.588-.22.94 0 .351.073.665.22.94.152.276.357.49.615.642a1.8 1.8 0 00.887.22zm8.426-.035v1.661h-.589V9h-4.139v1.116h-.588v-1.66h.263c.311-.018.522-.247.633-.686.111-.44.187-1.055.228-1.846l.062-1.546h3.409v4.077h.721zm-3.62-2.495a11.73 11.73 0 01-.167 1.625c-.082.422-.229.712-.44.87h2.882V4.931h-2.223l-.052 1.029zm6.69-1.617c.603 0 1.066.152 1.388.457.323.298.484.744.484 1.335V9h-.598v-.72c-.141.24-.348.427-.624.562-.269.135-.591.202-.966.202-.516 0-.926-.123-1.231-.37a1.194 1.194 0 01-.457-.975c0-.392.141-.708.422-.949.287-.24.741-.36 1.362-.36h1.468v-.28c0-.398-.112-.7-.334-.905-.223-.211-.548-.316-.976-.316-.293 0-.574.05-.843.149a2.06 2.06 0 00-.694.395l-.282-.465c.235-.2.516-.352.844-.457a3.206 3.206 0 011.037-.167zm-.22 4.209c.352 0 .653-.08.905-.237.252-.164.44-.399.563-.703v-.756h-1.45c-.791 0-1.186.275-1.186.826 0 .27.102.483.307.641.205.153.492.229.861.229zm7.267-3.62h-1.748V9h-.624V4.931h-1.749v-.553h4.121v.553zm2.845 2.012h-1.055V9h-.624V4.378h.624v2.03h1.063l1.626-2.03h.677l-1.819 2.24L268.798 9h-.738l-1.704-2.056zm5.435 2.1c-.446 0-.847-.1-1.204-.299a2.24 2.24 0 01-.844-.843 2.393 2.393 0 01-.307-1.213c0-.451.102-.855.307-1.213.205-.357.486-.635.844-.835a2.43 2.43 0 011.204-.298c.445 0 .846.1 1.203.298.358.2.636.478.835.835.205.358.308.762.308 1.213 0 .451-.103.855-.308 1.213a2.174 2.174 0 01-.835.843c-.357.2-.758.299-1.203.299zm0-.554c.328 0 .62-.073.878-.22.264-.152.469-.365.615-.64.147-.276.22-.59.22-.941 0-.352-.073-.665-.22-.94a1.52 1.52 0 00-.615-.633 1.692 1.692 0 00-.878-.228c-.329 0-.624.076-.888.228a1.595 1.595 0 00-.615.633c-.147.275-.22.588-.22.94 0 .351.073.665.22.94.152.276.357.49.615.642.264.146.559.22.888.22zm6.887-1.88c.626.146.94.524.94 1.133 0 .405-.15.715-.448.932-.299.217-.744.325-1.336.325h-2.1V4.378h2.038c.528 0 .941.102 1.239.307.299.205.449.498.449.88 0 .251-.071.468-.211.65a1.21 1.21 0 01-.571.395zm-2.338-.176h1.389c.357 0 .629-.067.817-.202.193-.135.29-.331.29-.589 0-.258-.097-.45-.29-.58-.188-.129-.46-.193-.817-.193h-1.389v1.564zm1.468 2.074c.398 0 .697-.065.896-.193.199-.13.299-.331.299-.607 0-.275-.091-.477-.273-.606-.181-.135-.468-.202-.861-.202h-1.529v1.608h1.468zm3.536-4.13h.624V8.05l3.084-3.673h.553V9h-.623V5.327L281.906 9h-.562V4.378zm6.313 0h.624V8.05l3.084-3.673h.554V9h-.624V5.327L288.22 9h-.563V4.378zm2.1-.668c-.398 0-.714-.1-.949-.299-.234-.199-.354-.48-.36-.843h.448a.733.733 0 00.246.553c.158.135.363.202.615.202s.457-.067.615-.202a.72.72 0 00.255-.553h.448c-.005.363-.128.644-.369.843-.234.2-.55.299-.949.299zm-50.318 16.668V25h-.624v-1.924a3.892 3.892 0 01-1.573.351c-.557 0-.99-.126-1.301-.378-.31-.258-.465-.641-.465-1.15v-1.521h.623v1.485c0 .346.112.61.334.79.223.177.53.264.923.264.434 0 .92-.114 1.459-.342v-2.197h.624zm3.626-.035c.603 0 1.066.152 1.388.457.322.298.483.744.483 1.335V25h-.597v-.72a1.43 1.43 0 01-.624.562c-.27.135-.592.202-.967.202-.515 0-.925-.123-1.23-.37a1.191 1.191 0 01-.457-.974c0-.393.141-.71.422-.95.287-.24.741-.36 1.362-.36h1.467v-.281c0-.398-.111-.7-.334-.905-.222-.211-.547-.317-.975-.317-.293 0-.574.05-.844.15-.269.094-.5.225-.694.395l-.281-.465c.234-.2.516-.352.844-.457a3.202 3.202 0 011.037-.167zm-.22 4.209c.351 0 .653-.08.905-.237a1.47 1.47 0 00.562-.703v-.756h-1.45c-.79 0-1.186.275-1.186.826 0 .27.103.483.308.641.205.153.492.229.861.229zm5.949.492c-.457 0-.867-.1-1.23-.299a2.176 2.176 0 01-.844-.835 2.441 2.441 0 01-.307-1.221c0-.451.102-.855.307-1.213.205-.357.486-.635.844-.834.363-.2.773-.3 1.23-.3.398 0 .753.08 1.063.238.317.152.566.378.747.677l-.466.316a1.418 1.418 0 00-.58-.51 1.683 1.683 0 00-.764-.175c-.334 0-.636.076-.905.228a1.577 1.577 0 00-.624.633c-.146.275-.22.588-.22.94 0 .357.074.674.22.949.152.27.36.48.624.633.269.146.571.22.905.22.275 0 .53-.056.764-.168.235-.11.428-.28.58-.51l.466.317a1.79 1.79 0 01-.747.686 2.419 2.419 0 01-1.063.228zm5.845-4.666h.624v2.047h2.909v-2.047h.624V25h-.624v-2.039h-2.909V25h-.624v-4.622zm7.784-.035c.604 0 1.066.152 1.389.457.322.298.483.744.483 1.335V25h-.598v-.72a1.42 1.42 0 01-.624.562c-.269.135-.591.202-.966.202-.516 0-.926-.123-1.23-.37a1.191 1.191 0 01-.457-.974c0-.393.14-.71.421-.95.288-.24.742-.36 1.363-.36h1.467v-.281c0-.398-.111-.7-.334-.905-.223-.211-.548-.317-.975-.317-.293 0-.574.05-.844.15a2.066 2.066 0 00-.694.395l-.281-.465c.234-.2.515-.352.843-.457a3.207 3.207 0 011.037-.167zm-.219 4.209c.351 0 .653-.08.905-.237a1.47 1.47 0 00.562-.703v-.756h-1.45c-.791 0-1.186.275-1.186.826 0 .27.102.483.307.641.205.153.492.229.862.229zm8.96-4.21c.434 0 .826.1 1.178.3.351.193.627.468.826.826.199.357.299.764.299 1.22 0 .464-.1.874-.299 1.231a2.138 2.138 0 01-.826.835c-.346.193-.738.29-1.178.29-.375 0-.714-.076-1.019-.229a1.964 1.964 0 01-.738-.685v2.575h-.624v-6.327h.597v.914c.188-.305.434-.54.739-.703.31-.164.659-.246 1.045-.246zm-.044 4.148c.322 0 .615-.073.879-.22a1.58 1.58 0 00.615-.64 1.92 1.92 0 00.229-.941 1.86 1.86 0 00-.229-.931 1.577 1.577 0 00-.615-.642 1.727 1.727 0 00-.879-.229c-.328 0-.624.077-.887.229a1.658 1.658 0 00-.615.642 1.91 1.91 0 00-.22.93c0 .352.073.666.22.941.152.275.357.49.615.642.263.146.559.22.887.22zm7.993-1.608h-3.867c.036.48.22.87.554 1.169.334.293.756.44 1.265.44.287 0 .551-.05.791-.15.24-.106.448-.258.624-.457l.352.404a1.971 1.971 0 01-.774.563 2.563 2.563 0 01-1.01.193c-.475 0-.897-.1-1.266-.299a2.226 2.226 0 01-.852-.843 2.393 2.393 0 01-.308-1.213c0-.451.097-.855.29-1.213.2-.357.469-.635.809-.834.346-.2.732-.3 1.16-.3.427 0 .811.1 1.151.3.34.199.606.477.8.834.193.352.29.756.29 1.213l-.009.193zm-2.232-2.003c-.445 0-.82.143-1.125.43-.299.281-.469.65-.51 1.107h3.278c-.041-.456-.214-.826-.518-1.107-.299-.287-.674-.43-1.125-.43zm5.347-.536c.603 0 1.066.152 1.388.457.323.298.484.744.484 1.335V25h-.598v-.72a1.42 1.42 0 01-.624.562c-.269.135-.591.202-.966.202-.516 0-.926-.123-1.231-.37a1.193 1.193 0 01-.456-.974c0-.393.14-.71.421-.95.287-.24.741-.36 1.362-.36h1.468v-.281c0-.398-.111-.7-.334-.905-.223-.211-.548-.317-.975-.317-.293 0-.575.05-.844.15a2.06 2.06 0 00-.694.395l-.281-.465c.234-.2.515-.352.843-.457a3.207 3.207 0 011.037-.167zm-.22 4.209c.352 0 .654-.08.905-.237.252-.164.44-.399.563-.703v-.756h-1.45c-.791 0-1.186.275-1.186.826 0 .27.102.483.307.641.205.153.492.229.861.229zm5.695-1.608h-1.055V25h-.624v-4.622h.624v2.03h1.063l1.626-2.03h.677l-1.819 2.24L290.146 25h-.739l-1.704-2.056zm8.506 1.511v1.705h-.588V25h-4.227v-4.622h.624v4.077h2.82v-4.077h.624v4.077h.747zm1.455-4.077h.624V25h-.624v-4.622zm.317-1.01a.441.441 0 01-.325-.133.431.431 0 010-.623.441.441 0 01.325-.132c.129 0 .237.044.325.132a.393.393 0 01.132.298.442.442 0 01-.132.325.441.441 0 01-.325.132zm6.322.975c.433 0 .823.1 1.168.299.352.199.627.477.826.834.2.358.299.762.299 1.213 0 .451-.099.855-.299 1.213a2.194 2.194 0 01-.826.843c-.345.2-.735.299-1.168.299-.41 0-.782-.088-1.116-.264a2.265 2.265 0 01-.817-.747 2.325 2.325 0 01-.361-1.09h-1.054V25h-.624v-4.622h.624v1.995h1.063c.047-.399.173-.75.378-1.055.211-.31.48-.55.808-.72.328-.17.695-.255 1.099-.255zm0 4.156a1.614 1.614 0 001.458-.87c.147-.275.22-.589.22-.94 0-.352-.073-.665-.22-.94a1.536 1.536 0 00-.606-.633 1.615 1.615 0 00-.852-.229 1.66 1.66 0 00-.861.229 1.556 1.556 0 00-.598.633c-.146.275-.22.588-.22.94 0 .351.074.665.22.94.146.275.346.49.598.642.257.152.544.228.861.228z" fill="#D3CFE6"/><path d="M214.576 9.044a.457.457 0 01-.334-.14.482.482 0 01-.132-.343c0-.135.044-.246.132-.334a.457.457 0 01.334-.14c.129 0 .24.046.334.14a.437.437 0 01.141.334.466.466 0 01-.141.342.457.457 0 01-.334.14zm4.009.009c-.475 0-.9-.126-1.275-.378-.369-.252-.659-.612-.87-1.081-.205-.474-.307-1.031-.307-1.67 0-.638.102-1.192.307-1.66.211-.475.501-.838.87-1.09.375-.252.8-.378 1.275-.378.474 0 .896.126 1.265.378.375.252.668.615.879 1.09.211.468.316 1.022.316 1.66 0 .639-.105 1.196-.316 1.67-.211.469-.504.829-.879 1.08a2.191 2.191 0 01-1.265.379zm0-.58c.357 0 .67-.1.94-.299.275-.2.489-.49.641-.87.153-.38.229-.84.229-1.38 0-.539-.076-.998-.229-1.38-.152-.38-.366-.67-.641-.87a1.54 1.54 0 00-.94-.298c-.358 0-.674.1-.949.299-.27.199-.481.489-.633.87-.153.38-.229.84-.229 1.38 0 .538.076.998.229 1.379.152.38.363.67.633.87.275.2.591.299.949.299zm8.858-1.09h-1.23V9h-.633V7.383h-3.471v-.457l3.26-4.077h.703l-3.146 3.972h2.672V5.397h.615v1.424h1.23v.562z" fill="#E73E51"/><path opacity=".3" d="M387.365 120.929v6.151h-.641v-5.589h-3.893v5.589h-.642v-6.151h5.176zm4.097 6.195c-.446 0-.847-.1-1.204-.299a2.24 2.24 0 01-.844-.843 2.396 2.396 0 01-.307-1.213c0-.451.102-.855.307-1.213.205-.357.486-.635.844-.834a2.42 2.42 0 011.204-.299c.445 0 .846.099 1.204.299.357.199.635.477.834.834.205.358.308.762.308 1.213 0 .451-.103.855-.308 1.213a2.18 2.18 0 01-.834.843 2.435 2.435 0 01-1.204.299zm0-.554c.328 0 .621-.073.878-.219.264-.153.469-.366.615-.642.147-.275.22-.589.22-.94s-.073-.665-.22-.94a1.52 1.52 0 00-.615-.633 1.693 1.693 0 00-.878-.228c-.328 0-.624.076-.888.228a1.596 1.596 0 00-.615.633c-.146.275-.22.589-.22.94s.074.665.22.94c.152.276.357.489.615.642.264.146.56.219.888.219zm5.621-1.546h-1.054v2.056h-.624v-4.622h.624v2.03h1.063l1.626-2.03h.676l-1.819 2.241 1.951 2.381h-.738l-1.705-2.056zm6.073-2.601c.433 0 .826.099 1.177.299.352.193.627.468.826.826.2.357.299.764.299 1.221 0 .463-.099.873-.299 1.23a2.126 2.126 0 01-.826.835c-.345.193-.738.29-1.177.29-.375 0-.715-.076-1.02-.228a1.984 1.984 0 01-.738-.686v2.575h-.624v-6.327h.598v.914c.187-.305.434-.539.738-.703a2.206 2.206 0 011.046-.246zm-.044 4.147c.322 0 .615-.073.879-.219.263-.153.468-.366.615-.642.152-.275.228-.589.228-.94s-.076-.662-.228-.931a1.586 1.586 0 00-.615-.642 1.73 1.73 0 00-.879-.228c-.328 0-.624.076-.888.228a1.667 1.667 0 00-.615.642c-.146.269-.219.58-.219.931 0 .351.073.665.219.94.153.276.358.489.615.642.264.146.56.219.888.219zm5.515-4.147c.603 0 1.066.152 1.388.457.323.298.484.744.484 1.335v2.865h-.598v-.72c-.14.24-.348.427-.624.562-.269.135-.591.202-.966.202-.516 0-.926-.123-1.231-.369a1.193 1.193 0 01-.457-.975c0-.393.141-.709.422-.949.287-.241.741-.361 1.362-.361h1.468v-.281c0-.398-.112-.7-.334-.905-.223-.211-.548-.316-.976-.316-.292 0-.574.049-.843.149-.27.094-.501.226-.694.395l-.282-.465c.235-.2.516-.352.844-.457a3.188 3.188 0 011.037-.167zm-.22 4.209c.352 0 .654-.079.905-.237.252-.164.44-.399.563-.703v-.756h-1.45c-.791 0-1.186.275-1.186.826 0 .269.102.483.307.641.205.153.492.229.861.229zm10.396-4.174v4.622h-6.38v-4.622h.624v4.077h2.267v-4.077h.624v4.077h2.241v-4.077h.624zm.712 4.077v1.556h-.589v-1.011h-.782v-.545h1.371zm5.375-1.573h-3.867c.036.481.22.87.554 1.169.334.293.756.439 1.265.439.288 0 .551-.049.791-.149.241-.105.448-.258.624-.457l.352.404a1.974 1.974 0 01-.774.563 2.561 2.561 0 01-1.01.193c-.475 0-.896-.1-1.265-.299a2.222 2.222 0 01-.853-.843 2.396 2.396 0 01-.307-1.213c0-.451.096-.855.29-1.213.199-.357.468-.635.808-.834.346-.2.732-.299 1.16-.299.428 0 .811.099 1.151.299.34.199.606.477.8.834.193.352.29.756.29 1.213l-.009.193zm-2.232-2.003c-.445 0-.82.143-1.125.43-.299.282-.469.651-.51 1.108h3.278c-.041-.457-.214-.826-.518-1.108-.299-.287-.674-.43-1.125-.43zm3.885-.501h.624v2.047h2.909v-2.047h.624v4.622h-.624v-2.039h-2.909v2.039h-.624v-4.622zm6.194 0h.624v2.047h2.908v-2.047h.624v4.622h-.624v-2.039h-2.908v2.039h-.624v-4.622zm9.743 0v4.622h-.571v-1.529h-1.626l-1.072 1.529h-.676l1.151-1.617c-.357-.099-.633-.269-.826-.509-.193-.241-.29-.545-.29-.914 0-.516.176-.908.527-1.178.352-.269.832-.404 1.441-.404h1.942zm-3.277 1.599c0 .686.436 1.028 1.309 1.028h1.397v-2.073h-1.353c-.902 0-1.353.348-1.353 1.045zm-55.142 16.132l-1.257 1.274v1.617h-.65v-6.151h.65v3.717l3.612-3.717h.747l-2.663 2.786 2.847 3.365h-.773l-2.513-2.891zm6.906-3.26c.785 0 1.4.187 1.846.562.445.375.667.891.667 1.547 0 .656-.222 1.172-.667 1.546-.446.37-1.061.554-1.846.554h-1.652v1.942h-.65v-6.151h2.302zm-.017 3.638c.609 0 1.075-.132 1.397-.396.322-.269.483-.647.483-1.133 0-.498-.161-.879-.483-1.142-.322-.27-.788-.405-1.397-.405h-1.635v3.076h1.635zm4.2-3.638h.65v6.151h-.65v-6.151z" fill="#D3CFE6"/><path d="M361.213 127.124a.456.456 0 01-.334-.141.48.48 0 01-.132-.342c0-.135.044-.246.132-.334a.456.456 0 01.334-.141c.129 0 .24.047.334.141a.44.44 0 01.14.334.467.467 0 01-.14.342.456.456 0 01-.334.141zm4.008.009c-.474 0-.899-.126-1.274-.378-.369-.252-.659-.612-.87-1.081-.205-.474-.307-1.031-.307-1.669 0-.639.102-1.193.307-1.661.211-.475.501-.838.87-1.09.375-.252.8-.378 1.274-.378.475 0 .897.126 1.266.378.375.252.667.615.878 1.09.211.468.317 1.022.317 1.661 0 .638-.106 1.195-.317 1.669-.211.469-.503.829-.878 1.081a2.191 2.191 0 01-1.266.378zm0-.58c.358 0 .671-.1.941-.299.275-.199.489-.489.641-.87.152-.381.228-.841.228-1.379 0-.539-.076-.999-.228-1.38-.152-.381-.366-.671-.641-.87a1.542 1.542 0 00-.941-.299c-.357 0-.673.1-.949.299-.269.199-.48.489-.632.87-.153.381-.229.841-.229 1.38 0 .538.076.998.229 1.379.152.381.363.671.632.87.276.199.592.299.949.299zm5.247-3.102c.891 0 1.538.161 1.942.483.41.317.615.762.615 1.336 0 .357-.085.677-.254.958a1.705 1.705 0 01-.747.668c-.334.158-.744.237-1.231.237-.439 0-.858-.07-1.256-.211-.393-.147-.709-.34-.949-.58l.307-.501c.205.211.475.384.809.519.334.128.694.193 1.081.193.509 0 .902-.114 1.177-.343.281-.228.422-.533.422-.914 0-.422-.158-.741-.475-.958-.31-.216-.837-.325-1.581-.325h-1.31l.317-3.084h3.365v.562h-2.812l-.211 1.96h.791z" fill="#E73E51"/><path opacity=".3" d="M241.547 230.867v.563h-4.35v-6.151h4.218v.562h-3.568v2.188h3.181v.554h-3.181v2.284h3.7zm7.068-1.757c0 .72-.237 1.286-.712 1.696-.474.41-1.145.632-2.012.668v1.66h-.606v-1.652c-.861-.035-1.529-.257-2.004-.667-.469-.416-.703-.985-.703-1.705 0-.715.234-1.274.703-1.679.475-.404 1.143-.623 2.004-.659v-1.863h.606v1.863c.867.041 1.538.264 2.012.668.475.404.712.961.712 1.67zm-5.422 0c0 .55.176.981.528 1.292.357.31.878.486 1.564.527v-3.603c-.68.035-1.198.208-1.556.518-.357.305-.536.727-.536 1.266zm2.698 1.819c.685-.035 1.207-.208 1.564-.519.363-.31.545-.744.545-1.3 0-.545-.182-.97-.545-1.274-.357-.305-.879-.475-1.564-.51v3.603zm8.349-1.617h-3.866c.035.48.22.87.554 1.169.333.293.755.439 1.265.439.287 0 .551-.05.791-.149.24-.106.448-.258.624-.457l.351.404a1.976 1.976 0 01-.773.562 2.57 2.57 0 01-1.011.194c-.474 0-.896-.1-1.265-.299a2.221 2.221 0 01-.852-.844 2.39 2.39 0 01-.308-1.212c0-.451.097-.856.29-1.213.199-.357.469-.636.808-.835a2.286 2.286 0 011.16-.299c.428 0 .812.1 1.152.299.339.199.606.478.799.835.193.351.29.756.29 1.213l-.009.193zm-2.232-2.004c-.445 0-.82.144-1.124.431-.299.281-.469.65-.51 1.107h3.278c-.041-.457-.214-.826-.519-1.107-.299-.287-.674-.431-1.125-.431zm5.564 2.065h-1.054v2.057h-.624v-4.622h.624v2.029h1.063l1.626-2.029h.676l-1.819 2.24 1.951 2.382h-.738l-1.705-2.057zm6.848-2.012h-1.748v4.069h-.624v-4.069h-1.749v-.553h4.121v.553zm1.166-.553h.624v3.673l3.084-3.673h.554v4.622h-.624v-3.673l-3.076 3.673h-.562v-4.622zm9.257 2.232c.627.146.941.524.941 1.133 0 .404-.15.715-.449.932-.298.216-.744.325-1.335.325h-2.1v-4.622h2.038c.527 0 .94.102 1.239.307.299.205.448.498.448.879 0 .252-.07.468-.211.65a1.205 1.205 0 01-.571.396zm-2.337-.176h1.388c.358 0 .63-.068.817-.202.194-.135.29-.331.29-.589 0-.258-.096-.451-.29-.58-.187-.129-.459-.193-.817-.193h-1.388v1.564zm1.467 2.074c.399 0 .697-.065.897-.194.199-.129.298-.331.298-.606 0-.275-.09-.478-.272-.606-.182-.135-.469-.202-.861-.202h-1.529v1.608h1.467zm3.536-4.13h.624v2.047h2.909v-2.047h.624v4.622h-.624v-2.039h-2.909v2.039h-.624v-4.622zm10.236 2.504h-3.867c.036.48.22.87.554 1.169.334.293.756.439 1.265.439.288 0 .551-.05.791-.149a1.78 1.78 0 00.624-.457l.352.404a1.972 1.972 0 01-.774.562 2.562 2.562 0 01-1.01.194c-.475 0-.896-.1-1.265-.299a2.217 2.217 0 01-.853-.844 2.39 2.39 0 01-.307-1.212 2.5 2.5 0 01.29-1.213 2.17 2.17 0 01.808-.835 2.283 2.283 0 011.16-.299c.428 0 .811.1 1.151.299.34.199.606.478.8.835.193.351.29.756.29 1.213l-.009.193zm-2.232-2.004c-.445 0-.82.144-1.125.431-.299.281-.469.65-.51 1.107h3.278c-.041-.457-.214-.826-.518-1.107-.299-.287-.674-.431-1.125-.431zm-45.522 17.732c.627.146.941.524.941 1.133 0 .404-.15.715-.448.932-.299.216-.744.325-1.336.325h-2.1v-4.622h2.038c.528 0 .941.102 1.239.307.299.205.449.498.449.879 0 .252-.071.468-.211.65a1.214 1.214 0 01-.572.396zm-2.337-.176h1.388c.358 0 .63-.068.818-.202.193-.135.29-.331.29-.589 0-.258-.097-.451-.29-.58-.188-.129-.46-.193-.818-.193h-1.388v1.564zm1.467 2.074c.399 0 .698-.065.897-.194.199-.129.299-.331.299-.606 0-.275-.091-.478-.273-.606-.181-.135-.468-.202-.861-.202h-1.529v1.608h1.467zm3.537-4.13h.623v3.673l3.085-3.673h.553v4.622h-.624v-3.673l-3.075 3.673h-.562v-4.622zm7.991 2.565h-1.054v2.057h-.624v-4.622h.624v2.029h1.063l1.626-2.029h.676l-1.818 2.24 1.95 2.382h-.738l-1.705-2.057zm5.435 2.101c-.445 0-.846-.1-1.203-.299a2.235 2.235 0 01-.844-.844 2.39 2.39 0 01-.308-1.212c0-.451.103-.856.308-1.213.205-.357.486-.636.844-.835a2.429 2.429 0 011.203-.299c.446 0 .847.1 1.204.299.358.199.636.478.835.835.205.357.308.762.308 1.213 0 .451-.103.855-.308 1.212a2.17 2.17 0 01-.835.844 2.43 2.43 0 01-1.204.299zm0-.554c.328 0 .621-.073.879-.22.264-.152.469-.366.615-.641.147-.275.22-.589.22-.94 0-.352-.073-.665-.22-.941a1.518 1.518 0 00-.615-.632 1.69 1.69 0 00-.879-.229c-.328 0-.623.076-.887.229a1.593 1.593 0 00-.615.632c-.147.276-.22.589-.22.941 0 .351.073.665.22.94.152.275.357.489.615.641.264.147.559.22.887.22zm6.325-4.148c.434 0 .826.1 1.178.299.351.193.626.469.826.826.199.358.298.765.298 1.222 0 .462-.099.872-.298 1.23-.2.357-.475.635-.826.835-.346.193-.739.29-1.178.29-.375 0-.715-.077-1.019-.229a1.959 1.959 0 01-.738-.685v2.574h-.624v-6.326h.597v.913c.188-.304.434-.539.738-.703a2.206 2.206 0 011.046-.246zm-.044 4.148c.322 0 .615-.073.879-.22a1.59 1.59 0 00.615-.641c.152-.275.228-.589.228-.94 0-.352-.076-.662-.228-.932a1.59 1.59 0 00-.615-.641 1.72 1.72 0 00-.879-.229c-.328 0-.624.076-.887.229a1.667 1.667 0 00-.616.641c-.146.27-.219.58-.219.932 0 .351.073.665.219.94.153.275.358.489.616.641.263.147.559.22.887.22zm3.95-4.112h.624v3.673l3.085-3.673h.553v4.622h-.624v-3.673l-3.075 3.673h-.563v-4.622zm8.247 4.666c-.457 0-.867-.1-1.23-.299a2.184 2.184 0 01-.844-.835 2.439 2.439 0 01-.307-1.221c0-.451.102-.856.307-1.213.205-.357.487-.636.844-.835a2.516 2.516 0 011.23-.299c.399 0 .753.079 1.063.238.317.152.566.378.747.676l-.465.317a1.426 1.426 0 00-.58-.51 1.69 1.69 0 00-.765-.176c-.334 0-.635.076-.905.229a1.575 1.575 0 00-.624.632 1.98 1.98 0 00-.22.941c0 .357.074.673.22.949.152.269.36.48.624.632.27.147.571.22.905.22.276 0 .53-.056.765-.167.234-.111.427-.281.58-.51l.465.317c-.181.299-.43.527-.747.685a2.42 2.42 0 01-1.063.229zm6.448-4.113h-1.749v4.069h-.624v-4.069h-1.749v-.553h4.122v.553zm2.756-.589c.603 0 1.066.153 1.388.457.322.299.483.744.483 1.336v2.865h-.597v-.721c-.141.24-.349.428-.624.563-.269.134-.592.202-.967.202-.515 0-.925-.123-1.23-.369a1.195 1.195 0 01-.457-.976c0-.392.141-.709.422-.949.287-.24.741-.36 1.362-.36h1.468v-.281c0-.399-.112-.7-.334-.905-.223-.211-.548-.317-.976-.317a2.4 2.4 0 00-.843.15c-.27.093-.501.225-.695.395l-.281-.466c.235-.199.516-.351.844-.457a3.215 3.215 0 011.037-.167zm-.22 4.21c.352 0 .653-.08.905-.238.252-.164.44-.398.563-.703v-.755h-1.45c-.791 0-1.187.275-1.187.826 0 .269.103.483.308.641.205.152.492.229.861.229zm4.016-4.174h.624v2.047h2.908v-2.047h.624v4.622h-.624v-2.039h-2.908v2.039h-.624v-4.622zm6.193 0h.624v2.047h2.909v-2.047h.624v4.622h-.624v-2.039h-2.909v2.039h-.624v-4.622zm9.744 0v4.622h-.571v-1.529h-1.626l-1.072 1.529h-.677l1.151-1.617c-.357-.1-.632-.27-.826-.51-.193-.24-.29-.545-.29-.914 0-.515.176-.908.528-1.177.351-.27.832-.404 1.441-.404h1.942zm-3.278 1.599c0 .685.437 1.028 1.309 1.028h1.398v-2.074h-1.354c-.902 0-1.353.349-1.353 1.046zm10.265-1.635c.434 0 .826.1 1.178.299.351.193.627.469.826.826.199.358.299.765.299 1.222 0 .462-.1.872-.299 1.23a2.146 2.146 0 01-.826.835c-.346.193-.738.29-1.178.29-.375 0-.714-.077-1.019-.229a1.959 1.959 0 01-.738-.685v2.574h-.624v-6.326h.597v.913c.188-.304.434-.539.739-.703.31-.164.659-.246 1.045-.246zm-.044 4.148c.322 0 .615-.073.879-.22.264-.152.469-.366.615-.641.152-.275.229-.589.229-.94 0-.352-.077-.662-.229-.932a1.576 1.576 0 00-.615-.641 1.72 1.72 0 00-.879-.229c-.328 0-.624.076-.887.229a1.657 1.657 0 00-.615.641c-.147.27-.22.58-.22.932 0 .351.073.665.22.94.152.275.357.489.615.641.263.147.559.22.887.22zm7.993-1.608h-3.867c.036.48.22.87.554 1.169.334.293.756.439 1.265.439.287 0 .551-.05.791-.149.24-.106.448-.258.624-.457l.352.404a1.972 1.972 0 01-.774.562 2.562 2.562 0 01-1.01.194c-.475 0-.897-.1-1.266-.299a2.221 2.221 0 01-.852-.844 2.39 2.39 0 01-.308-1.212c0-.451.097-.856.29-1.213.2-.357.469-.636.809-.835a2.283 2.283 0 011.16-.299c.427 0 .811.1 1.151.299.34.199.606.478.8.835.193.351.29.756.29 1.213l-.009.193zm-2.232-2.004c-.445 0-.82.144-1.125.431-.299.281-.469.65-.51 1.107h3.278c-.041-.457-.214-.826-.518-1.107-.299-.287-.674-.431-1.125-.431zm5.818 4.166c-.456 0-.867-.1-1.23-.299a2.182 2.182 0 01-.843-.835 2.44 2.44 0 01-.308-1.221c0-.451.103-.856.308-1.213.205-.357.486-.636.843-.835a2.52 2.52 0 011.23-.299c.399 0 .753.079 1.064.238.316.152.565.378.747.676l-.466.317a1.42 1.42 0 00-.58-.51 1.687 1.687 0 00-.765-.176c-.333 0-.635.076-.905.229a1.588 1.588 0 00-.624.632 1.98 1.98 0 00-.219.941c0 .357.073.673.219.949.153.269.361.48.624.632.27.147.572.22.905.22.276 0 .531-.056.765-.167a1.42 1.42 0 00.58-.51l.466.317a1.797 1.797 0 01-.747.685 2.428 2.428 0 01-1.064.229zm7.142-4.666l-2.311 5.175c-.188.434-.405.741-.651.923a1.45 1.45 0 01-.887.272c-.223 0-.431-.035-.624-.105a1.361 1.361 0 01-.501-.316l.29-.466c.234.234.516.351.844.351.21 0 .389-.058.536-.175.152-.118.293-.317.421-.598l.203-.448-2.066-4.613h.651l1.74 3.927 1.74-3.927h.615zm3.617-.036c.433 0 .826.1 1.177.299.352.193.627.469.826.826.199.358.299.765.299 1.222 0 .462-.1.872-.299 1.23a2.139 2.139 0 01-.826.835c-.345.193-.738.29-1.177.29-.375 0-.715-.077-1.02-.229a1.973 1.973 0 01-.738-.685v2.574h-.624v-6.326h.598v.913c.187-.304.433-.539.738-.703.31-.164.659-.246 1.046-.246zm-.044 4.148c.322 0 .615-.073.878-.22.264-.152.469-.366.616-.641.152-.275.228-.589.228-.94 0-.352-.076-.662-.228-.932a1.585 1.585 0 00-.616-.641 1.715 1.715 0 00-.878-.229c-.328 0-.624.076-.888.229a1.657 1.657 0 00-.615.641c-.146.27-.22.58-.22.932 0 .351.074.665.22.94.152.275.357.489.615.641.264.147.56.22.888.22zm5.883.554c-.457 0-.867-.1-1.23-.299a2.191 2.191 0 01-.844-.835 2.439 2.439 0 01-.307-1.221c0-.451.102-.856.307-1.213.206-.357.487-.636.844-.835a2.516 2.516 0 011.23-.299c.399 0 .753.079 1.064.238.316.152.565.378.746.676l-.465.317a1.426 1.426 0 00-.58-.51 1.69 1.69 0 00-.765-.176c-.334 0-.635.076-.905.229a1.588 1.588 0 00-.624.632 1.98 1.98 0 00-.219.941c0 .357.073.673.219.949.153.269.361.48.624.632.27.147.571.22.905.22.276 0 .53-.056.765-.167.234-.111.427-.281.58-.51l.465.317c-.181.299-.43.527-.746.685a2.428 2.428 0 01-1.064.229zm3.282-4.666h.624v4.622h-.624v-4.622zm.317-1.011a.443.443 0 01-.326-.132.434.434 0 010-.624.443.443 0 01.326-.132c.128 0 .237.044.325.132a.393.393 0 01.131.299.44.44 0 01-.131.325.443.443 0 01-.325.132zm5.293 3.243c.627.146.941.524.941 1.133 0 .404-.15.715-.449.932-.298.216-.744.325-1.335.325h-2.1v-4.622h2.038c.528 0 .941.102 1.239.307.299.205.448.498.448.879 0 .252-.07.468-.21.65a1.214 1.214 0 01-.572.396zm-2.337-.176h1.388c.358 0 .63-.068.818-.202.193-.135.29-.331.29-.589 0-.258-.097-.451-.29-.58-.188-.129-.46-.193-.818-.193h-1.388v1.564zm1.467 2.074c.399 0 .698-.065.897-.194.199-.129.298-.331.298-.606 0-.275-.09-.478-.272-.606-.182-.135-.469-.202-.861-.202h-1.529v1.608h1.467z" fill="#D3CFE6"/><path d="M215.674 231.474a.454.454 0 01-.334-.141.483.483 0 01-.132-.343c0-.134.044-.246.132-.334a.457.457 0 01.334-.14c.129 0 .24.047.334.14.093.088.14.2.14.334a.47.47 0 01-.14.343.456.456 0 01-.334.141zm4.008.008a2.24 2.24 0 01-1.274-.377c-.369-.252-.659-.613-.87-1.081-.205-.475-.307-1.031-.307-1.67 0-.638.102-1.192.307-1.661.211-.474.501-.837.87-1.089.375-.252.8-.378 1.274-.378.475 0 .897.126 1.266.378.375.252.667.615.878 1.089.211.469.317 1.023.317 1.661 0 .639-.106 1.195-.317 1.67-.211.468-.503.829-.878 1.081a2.198 2.198 0 01-1.266.377zm0-.58c.358 0 .671-.099.94-.298.276-.2.49-.489.642-.87.152-.381.228-.841.228-1.38 0-.539-.076-.999-.228-1.38-.152-.38-.366-.67-.642-.869a1.531 1.531 0 00-.94-.299c-.357 0-.674.099-.949.299-.269.199-.48.489-.633.869-.152.381-.228.841-.228 1.38 0 .539.076.999.228 1.38.153.381.364.67.633.87.275.199.592.298.949.298zm6.179-3.154c.404 0 .761.076 1.072.228.316.153.562.369.738.651.176.275.263.597.263.966 0 .375-.09.706-.272.993a1.82 1.82 0 01-.756.668 2.441 2.441 0 01-1.072.228c-.814 0-1.438-.266-1.871-.799-.434-.539-.651-1.298-.651-2.276 0-.686.118-1.266.352-1.74.234-.475.562-.832.984-1.072.422-.246.914-.369 1.476-.369.61 0 1.096.111 1.459.334l-.255.509c-.293-.193-.691-.29-1.195-.29-.679 0-1.213.217-1.599.651-.387.427-.58 1.051-.58 1.871 0 .147.009.314.026.501.152-.334.396-.591.73-.773a2.312 2.312 0 011.151-.281zm-.053 3.198c.445 0 .805-.12 1.081-.36.281-.246.422-.571.422-.975 0-.405-.141-.727-.422-.967-.276-.24-.65-.36-1.125-.36-.31 0-.586.058-.826.176a1.395 1.395 0 00-.554.483 1.225 1.225 0 00-.202.685c0 .235.062.451.185.651.129.199.316.36.562.483.246.123.539.184.879.184z" fill="#E73E51"/><path fill-rule="evenodd" clip-rule="evenodd" d="M162.316 73.896c-24.13 24.13-27.635 61.07-10.507 88.896l-9.012 9.012 23.711 23.71 9.011-9.011c27.826 17.128 64.766 13.622 88.896-10.508 28.214-28.214 28.231-73.942.037-102.136-28.194-28.194-73.922-28.177-102.136.037zm51.051 113.348c34.417 0 62.317-27.896 62.317-62.308s-27.9-62.308-62.317-62.308c-34.416 0-62.316 27.896-62.316 62.308s27.9 62.308 62.316 62.308z" fill="#E73E51"/></svg>