<svg width="57" height="56" viewBox="0 0 57 56" fill="none" xmlns="http://www.w3.org/2000/svg"><g clip-path="url(#clip0)" fill="#E8706D"><path d="M42.752 1.75a.82.82 0 00.593-.256.895.895 0 00.245-.619.895.895 0 00-.245-.619.82.82 0 00-.593-.256h-28.5a.82.82 0 00-.592.256.895.895 0 00-.246.619c0 .232.088.455.246.619a.82.82 0 00.592.256h28.5zm-.001 1.75H10.898c-5.504 0-8.069 2.04-9.252 3.752-1.449 2.1-1.72 4.905-.765 7.9 1.479 4.63 6.448 10.193 9.503 12.664a.814.814 0 001.177-.155.904.904 0 00-.148-1.229c-2.806-2.268-7.586-7.598-8.939-11.835-.783-2.445-.593-4.69.533-6.321 1.366-1.98 4.094-3.026 7.891-3.026h2.515v16.625c0 11.77 11.187 18.552 13.472 19.813a.917.917 0 00-.06.312v4.375c0 .232.088.455.245.619a.82.82 0 00.593.256.82.82 0 00.593-.256.895.895 0 00.245-.619V42a.905.905 0 00-.055-.287c2.538-1.246 15.143-8.026 15.143-19.838V5.25h2.515c3.797 0 6.525 1.046 7.891 3.026 1.127 1.63 1.316 3.876.533 6.322-1.056 3.31-6.318 9.718-8.938 11.836a.904.904 0 00-.148 1.23.814.814 0 001.178.155c2.902-2.35 8.316-8.96 9.501-12.666.956-2.994.684-5.8-.764-7.9C54.173 5.54 51.608 3.5 46.104 3.5h-3.353zm-.838 18.375c0 10.663-11.99 17.157-14.226 18.275-2.06-1.163-12.598-7.642-12.598-18.275V5.25h26.824v16.625zM18.443 49c-1.913 0-3.353 1.505-3.353 3.5v2.625c0 .232.088.455.245.619a.82.82 0 00.593.256h23.47a.82.82 0 00.593-.256.895.895 0 00.246-.619v-2.494c0-2.035-1.474-3.631-3.353-3.631H18.443zm20.117 3.631v1.619H16.766V52.5c0-1.03.69-1.75 1.677-1.75h18.441c.956 0 1.676.809 1.676 1.881z"/></g><defs><clipPath id="clip0"><path fill="#fff" d="M0 0h57v56H0z"/></clipPath></defs></svg>