<svg width="298" height="50" viewBox="0 0 298 50" fill="none" xmlns="http://www.w3.org/2000/svg"><path fill-rule="evenodd" clip-rule="evenodd" d="M31.974 25.026C31.974 9.859 43.621 0 57.597 0c13.905 0 25.551 10.066 25.551 25.026 0 15.167-11.646 24.957-25.551 24.957-13.976 0-25.623-9.721-25.623-24.957zm12.706 0c0 9.377 6.564 13.858 12.917 13.858 6.352 0 12.846-3.448 12.846-13.858 0-9.997-6.564-13.927-12.917-13.927-6.705 0-12.846 4.62-12.846 13.927z" fill="#E73E51"/><path d="M0 .827h12.635v37.229H28.94v11.031H0V.827z" fill="#E73E51"/><path fill-rule="evenodd" clip-rule="evenodd" d="M114.698 0c-13.976 0-25.623 9.859-25.623 25.026 0 15.236 11.647 24.957 25.623 24.957 13.905 0 25.552-9.79 25.552-24.957C140.25 10.066 128.603 0 114.698 0zm0 38.884c-6.353 0-12.917-4.481-12.917-13.858 0-9.307 6.141-13.927 12.846-13.927 6.353 0 12.917 3.93 12.917 13.927 0 10.41-6.493 13.858-12.846 13.858zm31.479-13.858C146.177 9.859 157.823 0 171.799 0c13.905 0 25.552 10.066 25.552 25.026 0 5.855-1.742 10.905-4.674 14.903l2.957 2.888L188.28 50l-3.365-3.287c-3.856 2.121-8.353 3.27-13.116 3.27-13.976 0-25.622-9.721-25.622-24.957zm29.42-1.78l8.092 7.905c.609-1.703.956-3.727.956-6.125 0-9.997-6.564-13.926-12.917-13.926-6.705 0-12.846 4.62-12.846 13.926 0 9.377 6.564 13.858 12.917 13.858 1.506 0 3.019-.197 4.453-.632l-8.008-7.822 7.353-7.184z" fill="#E73E51"/><path d="M232.146 27.645L221.7.551h-16.941v48.536h12.352V19.162l3.671 9.38 6.212 13.512H237.3l6.211-13.513 3.671-9.38v9.585l-.001.002v20.34h12.353V.55h-16.729l-10.659 27.095zM298 .827v10.341h-18.211v7.584h14.945v10.34h-14.945v9.515H298v10.48h-30.351V.827H298z" fill="#E73E51"/></svg>