<svg width="140" height="140" viewBox="0 0 140 140" fill="none" xmlns="http://www.w3.org/2000/svg"><path fill-rule="evenodd" clip-rule="evenodd" d="M106.683 129.664c-26.97 16.601-62.775 13.204-86.163-10.184-27.346-27.347-27.362-71.668-.035-98.995 27.327-27.327 71.648-27.311 98.995.035 23.388 23.388 26.785 59.192 10.184 86.163l8.734 8.734-22.981 22.981-8.734-8.734zm-24.272-24.272L61.443 84.424l22.98-22.981 20.969 20.968c4.597-13.163 1.632-28.384-8.893-38.91-14.646-14.645-38.382-14.653-53.017-.019-14.634 14.635-14.626 38.371.02 53.017 10.525 10.525 25.746 13.49 38.91 8.893z" fill="#E73E51"/></svg>