<svg width="55" height="56" viewBox="0 0 55 56" fill="none" xmlns="http://www.w3.org/2000/svg"><path d="M51.667 0H3.333C1.963 0 0 2.062 0 3.5v49C0 53.938 1.963 56 3.333 56h48.334C53.037 56 55 53.938 55 52.5v-49C55 2.062 53.037 0 51.667 0zm1.666 52.5c-.01.497-1.193 1.74-1.666 1.75H3.333c-.473-.01-1.656-1.253-1.666-1.75v-49c.01-.497 1.193-1.74 1.666-1.75h48.334c.473.01 1.656 1.253 1.666 1.75v49z" fill="#E8706D"/><path d="M27.501 9.625c-1.838 0-3.333 1.57-3.333 3.5s1.495 3.5 3.333 3.5c1.839 0 3.334-1.57 3.334-3.5s-1.495-3.5-3.334-3.5zm0 5.25c-.918 0-1.666-.786-1.666-1.75s.748-1.75 1.666-1.75c.919 0 1.667.786 1.667 1.75s-.748 1.75-1.667 1.75zm13.332 22.75c-1.838 0-3.333 1.57-3.333 3.5s1.495 3.5 3.333 3.5c1.839 0 3.334-1.57 3.334-3.5s-1.495-3.5-3.334-3.5zm0 5.25c-.918 0-1.666-.786-1.666-1.75s.748-1.75 1.666-1.75c.919 0 1.667.786 1.667 1.75s-.748 1.75-1.667 1.75zm-26.668-14c-1.838 0-3.333 1.57-3.333 3.5s1.495 3.5 3.333 3.5c1.839 0 3.334-1.57 3.334-3.5s-1.495-3.5-3.334-3.5zm0 5.25c-.918 0-1.666-.786-1.666-1.75s.748-1.75 1.666-1.75c.919 0 1.667.786 1.667 1.75s-.748 1.75-1.667 1.75zm0-7.875a.814.814 0 00.59-.256.898.898 0 00.244-.619V9.625a.898.898 0 00-.244-.619.814.814 0 00-.59-.256.814.814 0 00-.589.256.898.898 0 00-.244.619v15.75a.9.9 0 00.244.619.814.814 0 00.59.256zm0 12.25a.814.814 0 00-.589.256.898.898 0 00-.244.619v5.25a.9.9 0 00.244.619.814.814 0 00.59.256.814.814 0 00.589-.256.898.898 0 00.244-.619v-5.25a.898.898 0 00-.244-.619.814.814 0 00-.59-.256zm13.336-19.25a.814.814 0 00-.589.256.898.898 0 00-.244.619v24.5a.9.9 0 00.244.619.814.814 0 00.59.256.814.814 0 00.589-.256.898.898 0 00.244-.619v-24.5a.898.898 0 00-.244-.619.814.814 0 00-.59-.256zM40.833 35a.814.814 0 00.59-.256.898.898 0 00.244-.619v-24.5a.898.898 0 00-.244-.619.814.814 0 00-.59-.256.814.814 0 00-.589.256.898.898 0 00-.244.619v24.5a.9.9 0 00.244.619.814.814 0 00.59.256z" fill="#E8706D"/></svg>