<svg width="54" height="56" viewBox="0 0 54 56" fill="none" xmlns="http://www.w3.org/2000/svg"><g clip-path="url(#clip0)" fill="#E8706D"><path d="M51.915 12.709L32.435 1.307c-2.65-1.552-7.206-1.554-9.863 0L3.095 12.71c-1.49.873-2.309 2.094-2.309 3.442 0 1.347.82 2.569 2.309 3.44l19.479 11.403c1.326.777 3.078 1.204 4.93 1.204 1.855 0 3.607-.428 4.933-1.204l19.479-11.403c1.49-.871 2.31-2.093 2.31-3.44 0-1.348-.822-2.57-2.31-3.442zm-.888 5.255L31.548 29.367c-2.089 1.223-6 1.225-8.09 0L3.98 17.964c-.885-.518-1.39-1.18-1.39-1.813 0-.635.505-1.295 1.39-1.815L23.458 2.933c1.045-.612 2.52-.962 4.044-.962 1.525 0 3 .351 4.045.962l19.478 11.403c.885.518 1.393 1.18 1.393 1.815.001.633-.505 1.295-1.39 1.813z"/><path d="M51.916 24.674a.874.874 0 00-.66-.047.912.912 0 00-.515.433.969.969 0 00-.092.68c.053.23.189.432.38.563.884.518 1.392 1.18 1.392 1.813 0 .634-.508 1.295-1.392 1.813L31.55 41.332c-2.19 1.283-5.896 1.285-8.09 0L3.981 29.929c-.884-.518-1.39-1.18-1.39-1.813s.506-1.295 1.39-1.813a.913.913 0 00.267-.238.95.95 0 00.185-.69.96.96 0 00-.34-.624.89.89 0 00-.665-.191.88.88 0 00-.334.114c-1.49.871-2.309 2.095-2.309 3.442 0 1.348.819 2.57 2.309 3.442l19.479 11.403c1.381.809 3.157 1.215 4.93 1.215 1.776 0 3.55-.404 4.933-1.215l19.479-11.403c1.49-.871 2.31-2.095 2.31-3.442 0-1.348-.82-2.57-2.309-3.442z"/><path d="M51.915 36.408a.875.875 0 00-.661-.047.912.912 0 00-.515.433.968.968 0 00-.092.68c.054.231.19.432.38.563.884.518 1.392 1.18 1.392 1.813 0 .634-.508 1.295-1.392 1.815L31.548 53.068c-2.19 1.283-5.896 1.284-8.09 0L3.98 41.663c-.885-.518-1.39-1.18-1.39-1.815 0-.633.505-1.295 1.39-1.813a.911.911 0 00.266-.238.95.95 0 00.185-.69.96.96 0 00-.34-.623.89.89 0 00-.665-.192.88.88 0 00-.334.114C1.605 37.28.785 38.501.785 39.85c0 1.35.819 2.57 2.309 3.442l19.479 11.403c1.381.809 3.157 1.215 4.93 1.215 1.776 0 3.55-.404 4.933-1.215l19.479-11.403c1.49-.873 2.31-2.094 2.31-3.442 0-1.347-.822-2.57-2.31-3.442z"/></g><defs><clipPath id="clip0"><path fill="#fff" d="M0 0h54v56H0z"/></clipPath></defs></svg>