<svg width="544" height="57" viewBox="0 0 544 57" fill="none" xmlns="http://www.w3.org/2000/svg"><path fill-rule="evenodd" clip-rule="evenodd" d="M543.327 21.171C541.056 8.936 529.742.491 517.899.491c-11.872 0-23.178 8.56-25.428 20.68-.347 1.866.847 3.667 2.667 4.022 1.819.355 3.575-.87 3.922-2.736 1.66-8.946 10.138-15.088 18.839-15.088 8.704 0 17.178 6.14 18.839 15.088.347 1.866 2.103 3.091 3.922 2.736 1.82-.355 3.014-2.156 2.667-4.022zM132.81 53.114c0 .887-.365 1.726-1.003 2.333a3.407 3.407 0 01-2.326 1.026 3.013 3.013 0 01-2.325-.98 3.388 3.388 0 01-.934-2.402V3.947a3.312 3.312 0 01.934-2.402c.616-.653 1.436-1.026 2.325-1.026.889.023 1.71.373 2.326 1.026a3.164 3.164 0 011.003 2.402v21.225h20.926c1.801.024 3.26 1.54 3.237 3.382a3.137 3.137 0 01-.957 2.356 3.26 3.26 0 01-2.303.933H132.81v21.271zm29.589-51.662a3.428 3.428 0 012.348-.957h.296c1.732.117 3.077 1.633 2.963 3.406v49.167c0 .863-.319 1.702-.911 2.332a3.095 3.095 0 01-2.348.98 3.27 3.27 0 01-2.348-.98 3.211 3.211 0 01-1.003-2.332V3.854a3.16 3.16 0 011.003-2.402zm134.176 48.28c.433.094.866.14 1.299.117a3.069 3.069 0 012.439 1.026 3.38 3.38 0 01.958 2.45v.14c-.023 1.865-1.528 3.334-3.328 3.288-1.3.023-2.576-.187-3.807-.607a9.349 9.349 0 01-3.534-2.822 27.589 27.589 0 01-2.188-2.985c-.733-1.155-1.622-2.484-2.627-3.987l-.656-.981a93.355 93.355 0 00-1.892-2.73c-.57-.792-.98-1.399-1.208-1.818l-.296-.444a9.318 9.318 0 00-1.687-1.865 4.141 4.141 0 00-2.462-.56 3.23 3.23 0 01-2.394-.98 3.25 3.25 0 01-1.003-2.425c0-.934.342-1.82 1.003-2.473.616-.676 1.482-1.026 2.394-1.026 1.55 0 3.077-.327 4.491-.956a11.927 11.927 0 003.624-2.543 12.233 12.233 0 002.485-3.708 10.78 10.78 0 00.935-4.548c0-1.586-.32-3.15-.935-4.595-1.185-2.822-3.397-5.085-6.155-6.298a11.003 11.003 0 00-4.491-.933h-15.546v45.902c-.023 1.866-1.528 3.358-3.351 3.335a3.243 3.243 0 01-2.417-.98 3.313 3.313 0 01-.98-2.425V3.947c0-.863.319-1.702.935-2.332a3.332 3.332 0 012.416-.98h18.943a17 17 0 017.113 1.47 18.695 18.695 0 015.79 3.965 18.42 18.42 0 013.943 5.947 18.174 18.174 0 011.459 7.278c.023 3.335-.843 6.624-2.553 9.492-1.664 2.8-3.989 5.132-6.793 6.718.16.186.342.466.524.746l.274.373c.365.467.821 1.12 1.413 1.983.593.863 1.231 1.82 1.938 2.892l1.413 2.122c.479.77.958 1.493 1.436 2.17l1.254 1.866c.274.42.57.84.912 1.212.251.327.57.63.912.863zm57.422 3.08c0 .862-.364 1.725-.98 2.332h.046c-.593.63-1.436.98-2.303.98h-27.97a3.079 3.079 0 01-2.325-.98 3.261 3.261 0 01-.958-2.333V3.971a3.226 3.226 0 01.958-2.356c.615-.63 1.459-1.003 2.348-.98h27.97c.844 0 1.687.35 2.28.98a3.25 3.25 0 01.957 2.31 3.26 3.26 0 01-.98 2.401 3.075 3.075 0 01-2.28.933h-24.687v17.797h9.711c1.755.023 3.191 1.469 3.259 3.288 0 .887-.342 1.75-.98 2.356-.592.63-1.413.98-2.279.98h-9.689v17.773h24.643a3.17 3.17 0 012.279.956 3.257 3.257 0 01.98 2.402zm55.189-51.15a3.105 3.105 0 012.257-.98c.889 0 1.755.35 2.371 1.003a3.25 3.25 0 01.912 2.286v49.167c0 .676-.183 1.352-.57 1.912-.388.56-.935.98-1.573 1.213-.342.093-.707.14-1.049.163-1.003.047-1.938-.443-2.507-1.282l-30.889-41.54v39.604c0 1.796-1.413 3.242-3.168 3.242a3.098 3.098 0 01-2.234-.933 3.17 3.17 0 01-.958-2.333V3.924c0-.7.205-1.353.593-1.912.387-.514.935-.91 1.573-1.12a2.771 2.771 0 011.938 0c.615.21 1.162.583 1.572 1.12l30.82 41.633V3.947c0-.863.319-1.679.912-2.285zm27.674-.117a3.189 3.189 0 012.28-1.05 3.134 3.134 0 012.462 1.027c.638.653.98 1.54.957 2.449v48.863a3.24 3.24 0 01-.957 2.403l-.023.023a3.29 3.29 0 01-4.719-.023 3.24 3.24 0 01-.957-2.403V3.994a3.223 3.223 0 01.957-2.449zm36.793 7.207l-10.828 19.22.045.139c-.159.187-.319.35-.501.513.182.163.341.35.501.536l10.828 19.266c.228.327.525.63.844.863.433.117.889.14 1.322.117.889-.023 1.732.35 2.348 1.026.615.63.98 1.493.957 2.402v.024c0 1.866-1.481 3.358-3.305 3.358a11.265 11.265 0 01-3.83-.606 8.553 8.553 0 01-3.419-2.729l-11.33-19.825a3.115 3.115 0 00-2.393-1.026h-4.103c-1.824-.024-3.26-1.54-3.237-3.406v-.14c.045-1.842 1.55-3.312 3.35-3.265h3.99a3.116 3.116 0 002.393-1.026l11.33-19.802a8.807 8.807 0 013.374-2.87c1.231-.42 2.53-.629 3.829-.606.889-.023 1.733.35 2.348 1.003a3.29 3.29 0 01.958 2.426 3.238 3.238 0 01-.958 2.402 3.186 3.186 0 01-2.348 1.027 4.989 4.989 0 00-1.322.116 3.006 3.006 0 00-.843.863zM85.258 1.335c.547.327.957.816 1.185 1.423l21.291 48.91c.411.793.433 1.726.114 2.566-.296.863-.912 1.563-1.732 1.912-.433.14-.867.234-1.322.234-.616.023-1.231-.164-1.778-.49a3.167 3.167 0 01-1.254-1.493L83.457 12.181l-7.158 15.697-1.824 3.942h10.372a3.045 3.045 0 012.325.98c.547.606.867 1.399.89 2.238.022 1.843-1.414 3.382-3.215 3.406H71.375l-1.413 3.125-2.85 6.25-3.009 6.625-.042.091a.957.957 0 01-.072.142c-.798 1.586-2.713 2.216-4.263 1.4a3.147 3.147 0 01-1.732-1.866 3.28 3.28 0 01.136-2.543L80.493 2.665c.251-.607.661-1.097 1.208-1.4a3.467 3.467 0 011.779-.49c.638 0 1.253.21 1.778.56zm130.506 31.488a3.516 3.516 0 010 4.71c-.639.63-1.482.98-2.394.957h-13.427l-1.436 3.126-2.827 6.25-3.009 6.624c-.364.817-1.025 1.447-1.846 1.726a3.131 3.131 0 01-2.508-.14l-.136-.07c-1.573-.792-2.212-2.728-1.436-4.338L209.13 2.735a2.633 2.633 0 011.185-1.4c1.095-.7 2.485-.7 3.579 0 .525.35.935.84 1.163 1.423l21.314 48.957c.388.793.433 1.726.114 2.566a3.3 3.3 0 01-1.732 1.912 4.41 4.41 0 01-1.345.233 3.15 3.15 0 01-1.778-.49 3.296 3.296 0 01-1.254-1.492l-18.305-42.24-7.158 15.697-1.801 3.942h10.304c.889-.023 1.732.35 2.348.98zM9.849 49.989H36.52c.82-.023 1.596.303 2.188.886.57.607.89 1.4.89 2.24v.07c-.023 1.702-1.391 3.078-3.055 3.055H4.082c-1.14.093-2.234-.56-2.736-1.61a3.29 3.29 0 01.137-3.242l7.272-10.822 1.048-1.61 4.286-6.46a3.135 3.135 0 012.44-1.283 2.96 2.96 0 011.595.397c1.459.84 1.96 2.752 1.14 4.245l-1.322 1.982-6.634 9.96-1.459 2.192zM6.635.799H36.52A2.824 2.824 0 0139.278 2.5c.547 1.027.502 2.286-.136 3.242l-4.035 6.088-1.46 2.052-.843 1.283-3.168 4.852-2.872 4.338-.274.396c-.547.793-1.413 1.306-2.37 1.353-1.756 0-3.17-1.446-3.17-3.242.023-.536.16-1.05.41-1.493l3.124-4.804.387-.583 1.254-1.866 4.605-6.998H6.635a2.97 2.97 0 01-2.166-.956 3.257 3.257 0 01-.889-2.239c0-.84.32-1.633.89-2.216a2.84 2.84 0 012.165-.91z" fill="#81A0BF"/><path fill-rule="evenodd" clip-rule="evenodd" d="M517.666 56.754c11.951 0 23.368-8.772 25.66-21.48.35-1.938-.855-3.808-2.691-4.177-1.836-.369-3.608.903-3.958 2.841-1.676 9.295-10.228 15.671-19.011 15.671-8.78 0-17.335-6.38-19.011-15.67-.35-1.939-2.122-3.211-3.958-2.842-1.836.369-3.041 2.24-2.691 4.177 2.27 12.59 13.68 21.48 25.66 21.48z" fill="#fff"/></svg>